<svg width="70" height="182" viewBox="0 0 70 182" fill="none" xmlns="http://www.w3.org/2000/svg">
<g id="Property 1=Variant2">
<path id="Polygon 5" d="M14.114 89.2136L14.1113 89.2065L14.1085 89.1993L11.5681 82.6322C10.1943 79.0809 14.679 76.1988 17.3379 78.9241L26.9668 88.7933C29.5711 91.4626 33.8831 91.397 36.4065 88.6498L44.3794 79.9696C46.9836 77.1345 51.589 79.9673 50.2321 83.5697L34.3579 125.716C33.2189 128.741 28.9403 128.739 27.8055 125.713L14.114 89.2136ZM34.6772 65.7054C33.5037 68.6898 29.269 68.6574 28.1429 65.6554L14.351 28.888L8.62904 13.6341C7.20209 9.82999 12.3143 7.05667 14.7241 10.3275L26.7682 26.6748C29.3521 30.1819 34.5876 30.2031 37.2017 26.717L48.597 11.5201C51.0438 8.25697 56.1466 11.1038 54.6542 14.8993L34.6772 65.7054ZM34.7098 167.947C33.5515 170.949 29.2973 170.93 28.1673 167.918L22.7678 153.523C21.7373 150.776 25.3185 148.676 27.2123 150.917C29.4492 153.563 33.5263 153.566 35.7735 150.932C37.723 148.648 41.3096 150.841 40.2546 153.576L34.7098 167.947Z" fill="url(#paint0_linear_289_60)" stroke="#FAF4F6" stroke-width="3"/>
</g>
<defs>
<linearGradient id="paint0_linear_289_60" x1="30.4991" y1="180.742" x2="32.0289" y2="-19.252" gradientUnits="userSpaceOnUse">
<stop offset="0.3125" stop-color="#77BC48"/>
<stop offset="0.5625" stop-color="#C35B79"/>
<stop offset="1" stop-color="#FAF4F6" stop-opacity="0"/>
</linearGradient>
</defs>
</svg>
