<svg width="24" height="16" viewBox="0 0 24 16" fill="none" xmlns="http://www.w3.org/2000/svg">
<path id="Vector" d="M12 4.8C12.868 4.8 13.7004 5.13714 14.3142 5.73726C14.9279 6.33737 15.2727 7.15131 15.2727 8C15.2727 8.84869 14.9279 9.66263 14.3142 10.2627C13.7004 10.8629 12.868 11.2 12 11.2C11.132 11.2 10.2996 10.8629 9.68583 10.2627C9.07208 9.66263 8.72727 8.84869 8.72727 8C8.72727 7.15131 9.07208 6.33737 9.68583 5.73726C10.2996 5.13714 11.132 4.8 12 4.8ZM12 0C17.4545 0 22.1127 3.31733 24 8C22.1127 12.6827 17.4545 16 12 16C6.54545 16 1.88727 12.6827 0 8C1.88727 3.31733 6.54545 0 12 0ZM2.37818 8C3.25991 9.76033 4.62906 11.2435 6.32998 12.2808C8.03089 13.3181 9.99534 13.8681 12 13.8681C14.0047 13.8681 15.9691 13.3181 17.67 12.2808C19.3709 11.2435 20.7401 9.76033 21.6218 8C20.7401 6.23967 19.3709 4.75654 17.67 3.71919C15.9691 2.68185 14.0047 2.13193 12 2.13193C9.99534 2.13193 8.03089 2.68185 6.32998 3.71919C4.62906 4.75654 3.25991 6.23967 2.37818 8Z" fill="#1877F2"/>
</svg>
