<svg width="39" height="39" viewBox="0 0 39 39" fill="none" xmlns="http://www.w3.org/2000/svg">
<path d="M5.57143 0C2.49844 0 0 2.49844 0 5.57143V33.4286C0 36.5016 2.49844 39 5.57143 39H33.4286C36.5016 39 39 36.5016 39 33.4286V5.57143C39 2.49844 36.5016 0 33.4286 0H5.57143ZM31.435 7.3125L22.3989 17.6371L33.0281 31.6875H24.7058L18.1942 23.165L10.7337 31.6875H6.59866L16.2616 20.6404L6.06763 7.3125H14.5989L20.4924 15.1038L27.3 7.3125H31.435ZM28.1444 29.2152L13.354 9.65424H10.8904L25.8462 29.2152H28.1357H28.1444Z" fill="black"/>
</svg>
