<svg width="58" height="58" viewBox="0 0 58 58" fill="none" xmlns="http://www.w3.org/2000/svg">
<path d="M8.28571 0C3.71563 0 0 3.71563 0 8.28571V49.7143C0 54.2844 3.71563 58 8.28571 58H49.7143C54.2844 58 58 54.2844 58 49.7143V8.28571C58 3.71563 54.2844 0 49.7143 0H8.28571ZM46.7496 10.875L33.3112 26.2295L49.1187 47.125H36.742L27.058 34.4504L15.9629 47.125H9.81339L24.1839 30.696L9.02366 10.875H21.7112L30.4759 22.4621L40.6 10.875H46.7496ZM41.8558 43.4482L19.8598 14.3576H16.196L38.4379 43.4482H41.8429H41.8558Z" fill="#7D5C67"/>
</svg>
