<svg width="47" height="30" viewBox="0 0 47 30" fill="none" xmlns="http://www.w3.org/2000/svg">
<g id="Youtube Footer">
<path id="Vector" d="M46.0179 4.69398C45.4774 2.84633 43.8847 1.39117 41.8626 0.897344C38.1973 0 23.5 0 23.5 0C23.5 0 8.80276 0 5.13741 0.897344C3.11527 1.39125 1.52265 2.84633 0.982111 4.69398C0 8.04297 0 15.0303 0 15.0303C0 15.0303 0 22.0177 0.982111 25.3666C1.52265 27.2143 3.11527 28.6088 5.13741 29.1027C8.80276 30 23.5 30 23.5 30C23.5 30 38.1972 30 41.8626 29.1027C43.8847 28.6088 45.4774 27.2143 46.0179 25.3666C47 22.0177 47 15.0303 47 15.0303C47 15.0303 47 8.04297 46.0179 4.69398ZM18.6931 21.3743V8.68633L30.9772 15.0305L18.6931 21.3743Z" fill="#F6F6F6"/>
</g>
</svg>
