<svg width="80" height="80" viewBox="0 0 80 80" fill="none" xmlns="http://www.w3.org/2000/svg">
<rect x="1.5" y="1.5" width="77" height="77" rx="8.5" fill="#F6F6F6" stroke="#7D5C67" stroke-width="3"/>
<path d="M25.7096 20.1045L41.5 35.8942L57.2086 20.1863C57.5556 19.817 57.9736 19.5215 58.4375 19.3177C58.9015 19.1138 59.4018 19.0058 59.9085 19C60.9935 19 62.034 19.431 62.8012 20.1981C63.5683 20.9653 63.9993 22.0057 63.9993 23.0906C64.0089 23.5921 63.9158 24.0903 63.7259 24.5546C63.5359 25.0188 63.2531 25.4394 62.8948 25.7904L46.9817 41.4984L62.8948 57.4109C63.569 58.0704 63.9644 58.9636 63.9993 59.9062C63.9993 60.991 63.5683 62.0315 62.8012 62.7986C62.034 63.5658 60.9935 63.9968 59.9085 63.9968C59.3872 64.0184 58.867 63.9314 58.3811 63.7412C57.8952 63.5511 57.4541 63.262 57.0859 62.8923L41.5 47.1025L25.7505 62.8514C25.4048 63.2084 24.9919 63.4934 24.5355 63.69C24.0791 63.8866 23.5883 63.9908 23.0915 63.9968C22.0065 63.9968 20.966 63.5658 20.1988 62.7986C19.4317 62.0315 19.0007 60.991 19.0007 59.9062C18.9911 59.4046 19.0842 58.9065 19.2741 58.4422C19.464 57.9779 19.7469 57.5574 20.1052 57.2063L36.0183 41.4984L20.1052 25.5859C19.431 24.9263 19.0356 24.0331 19.0007 23.0906C19.0007 22.0057 19.4317 20.9653 20.1988 20.1981C20.966 19.431 22.0065 19 23.0915 19C24.0732 19.0123 25.0141 19.4091 25.7096 20.1045Z" fill="#7D5C67"/>
</svg>
