<?xml version="1.0" encoding="utf-8"?>
<!-- Generator: Adobe Illustrator 26.5.0, SVG Export Plug-In . SVG Version: 6.00 Build 0)  -->
<svg version="1.1" id="Calque_1" xmlns="http://www.w3.org/2000/svg" xmlns:xlink="http://www.w3.org/1999/xlink" x="0px" y="0px"
	 viewBox="0 0 1921 940" style="enable-background:new 0 0 1921 940;" xml:space="preserve">
<style type="text/css">
	.st0{fill:#7D5C67;fill-opacity:0.5;}
	.st1{fill:#F6F6F6;}
	.st2{fill:#7D5C67;}
</style>
<path class="st0" d="M0,0h1921c0,0-957.2,63.7-1335.1,212.6C207.9,361.6,0,815.6,0,815.6V0z"/>
<path class="st1" d="M-1.1,0h1923.6c0,0-1040.8,20.6-1419.3,170.1C124.6,319.6-1.1,818.6-1.1,818.6V0z"/>
<path class="st0" d="M1916.8,937.4c-188.1-0.8-529.6,0-719.9,0C1647,733.3,1865.5,365.8,1598.1,0c131,0,194.2,0,318.7,0V937.4z"/>
<path class="st1" d="M1921,940c-121.6-0.8-342.4,0-465.4,0c291-204.6,432.3-573.1,259.4-940c84.7,0,125.6,0,206,0V940z"/>
<path class="st2" d="M-1.1,802.7c0,0,553.3,70.8,954,71.1s969.6-71.1,969.6-71.1v138.8H-1.1V802.7z"/>
</svg>
