<svg width="506" height="442" viewBox="0 0 506 442" fill="none" xmlns="http://www.w3.org/2000/svg">
<path d="M0.965576 52.3198C21.1878 61.3416 42.6374 67.2635 64.601 69.8886C41.7234 56.08 24.1575 34.2135 15.8861 8.15983C37.6341 21.1566 61.4282 30.3137 86.2404 35.2353C106.452 13.5516 135.244 0 167.113 0C228.301 0 277.91 49.9574 277.91 111.574C277.91 120.32 276.93 128.834 275.041 137.003C367.122 132.348 448.76 87.929 503.406 20.424C512.941 36.903 518.405 56.0715 518.405 76.5167C518.405 115.228 498.844 149.377 469.116 169.387C486.711 168.832 503.918 164.047 519.302 155.43C519.308 155.897 519.308 156.364 519.308 156.834C519.308 210.894 481.117 255.99 430.434 266.241C446.75 270.709 463.863 271.363 480.468 268.153C466.37 312.48 425.452 344.737 376.971 345.64C414.889 375.564 462.663 393.403 514.57 393.403C523.514 393.403 532.332 392.874 541 391.844C491.969 423.502 433.731 441.973 371.163 441.973C167.37 441.973 55.931 271.955 55.931 124.513C55.931 119.674 56.0364 114.862 56.2516 110.078C34.5609 94.287 15.8394 74.7283 0.965576 52.3198Z" fill="#55ACEE" fill-opacity="0.3"/>
</svg>
