<?xml version="1.0" standalone="no"?>
<!DOCTYPE svg PUBLIC "-//W3C//DTD SVG 20010904//EN"
 "http://www.w3.org/TR/2001/REC-SVG-20010904/DTD/svg10.dtd">
<svg version="1.0" xmlns="http://www.w3.org/2000/svg"
 width="79.000000pt" height="83.000000pt" viewBox="0 0 79.000000 83.000000"
 preserveAspectRatio="xMidYMid meet">

<g transform="translate(0.000000,83.000000) scale(0.100000,-0.100000)"
fill="#000000" stroke="none">
<path d="M370 703 c-75 -27 -60 -133 19 -133 57 0 89 77 48 116 -16 16 -48 24
-67 17z"/>
<path d="M167 622 c-23 -25 -21 -58 3 -82 26 -26 46 -25 75 5 30 29 31 49 5
75 -25 25 -62 26 -83 2z"/>
<path d="M526 624 c-34 -33 -6 -104 40 -104 25 0 57 37 57 65 0 49 -63 74 -97
39z"/>
<path d="M311 529 c-14 -5 -31 -15 -39 -21 -8 -7 -32 -11 -53 -9 -57 4 -108
-16 -120 -47 -14 -37 -1 -152 17 -152 10 0 14 14 16 43 2 65 15 -68 17 -171 1
-64 4 -84 16 -89 25 -9 29 3 33 83 5 97 22 96 22 -1 0 -59 3 -77 15 -82 9 -3
19 -3 22 1 3 3 8 52 11 108 3 57 9 106 14 109 5 3 12 30 16 60 6 44 9 21 17
-126 10 -176 11 -180 33 -183 19 -3 22 1 22 31 0 62 13 157 21 157 5 0 10 -42
11 -93 3 -85 5 -92 24 -95 19 -3 22 3 28 59 3 34 6 103 7 153 1 101 16 179 18
93 1 -31 6 -49 15 -53 8 -3 13 -11 10 -17 -2 -7 -1 -55 4 -107 6 -76 10 -95
23 -98 14 -3 18 11 24 79 8 94 25 89 25 -8 0 -60 12 -85 31 -66 6 6 14 73 18
149 5 109 9 131 15 101 13 -61 31 -38 34 44 4 97 -11 114 -101 114 -34 0 -64
3 -67 6 -28 34 -144 50 -199 28z"/>
</g>
</svg>
