<svg width="30" height="30" viewBox="0 0 30 30" fill="none" xmlns="http://www.w3.org/2000/svg">
<g id="ph:users-three-fill">
<path id="Vector" d="M7.51395 17.3201C7.51713 17.3836 7.50736 17.4471 7.48523 17.5067C7.4631 17.5663 7.42908 17.6208 7.38523 17.6668C7.34138 17.7129 7.28862 17.7495 7.23017 17.7745C7.17171 17.7995 7.10878 17.8124 7.0452 17.8123H1.87489C1.66329 17.8126 1.45781 17.7414 1.29185 17.6101C1.1259 17.4788 1.00923 17.2953 0.960828 17.0893C0.930689 16.9483 0.932078 16.8024 0.964897 16.662C0.997716 16.5216 1.06115 16.3902 1.15067 16.2772C1.97779 15.1803 3.07523 14.3166 4.33583 13.7705C3.78238 13.2659 3.35791 12.636 3.09795 11.9336C2.83799 11.2313 2.75012 10.4768 2.8417 9.73347C2.93328 8.99013 3.20164 8.27957 3.62431 7.66128C4.04698 7.04299 4.61164 6.53498 5.27102 6.17979C5.93039 5.82461 6.66528 5.63259 7.41412 5.61982C8.16296 5.60705 8.90396 5.77391 9.57506 6.10641C10.2462 6.43891 10.8278 6.92737 11.2713 7.5309C11.7148 8.13442 12.0072 8.83542 12.1241 9.5752C12.1392 9.67469 12.1214 9.77637 12.0734 9.8648C12.0253 9.95322 11.9498 10.0235 11.8581 10.065C10.5578 10.6662 9.45653 11.6267 8.68431 12.8333C7.91209 14.0399 7.50112 15.4423 7.49989 16.8748C7.49989 17.0248 7.49989 17.1725 7.51395 17.3201ZM28.8421 16.276C28.0169 15.1804 26.9219 14.3172 25.664 13.7705C26.2174 13.2659 26.6419 12.636 26.9018 11.9336C27.1618 11.2313 27.2497 10.4768 27.1581 9.73347C27.0665 8.99013 26.7981 8.27957 26.3755 7.66128C25.9528 7.04299 25.3881 6.53498 24.7288 6.17979C24.0694 5.82461 23.3345 5.63259 22.5857 5.61982C21.8368 5.60705 21.0958 5.77391 20.4247 6.10641C19.7536 6.43891 19.172 6.92737 18.7285 7.5309C18.285 8.13442 17.9925 8.83542 17.8757 9.5752C17.8606 9.67469 17.8784 9.77637 17.9264 9.8648C17.9744 9.95322 18.05 10.0235 18.1417 10.065C19.442 10.6662 20.5433 11.6267 21.3155 12.8333C22.0877 14.0399 22.4987 15.4423 22.4999 16.8748C22.4999 17.0248 22.4999 17.1725 22.4858 17.3201C22.4826 17.3836 22.4924 17.4471 22.5146 17.5067C22.5367 17.5663 22.5707 17.6208 22.6146 17.6668C22.6584 17.7129 22.7112 17.7495 22.7696 17.7745C22.8281 17.7995 22.891 17.8124 22.9546 17.8123H28.1249C28.3365 17.8126 28.542 17.7414 28.7079 17.6101C28.8739 17.4788 28.9906 17.2953 29.039 17.0893C29.0693 16.948 29.0679 16.8018 29.0348 16.6612C29.0018 16.5205 28.938 16.389 28.8479 16.276H28.8421ZM18.4124 21.3361C19.3458 20.6213 20.0318 19.6318 20.3739 18.507C20.716 17.3821 20.697 16.1783 20.3196 15.0647C19.9422 13.9512 19.2253 12.9839 18.2698 12.2988C17.3142 11.6138 16.168 11.2453 14.9923 11.2453C13.8165 11.2453 12.6703 11.6138 11.7148 12.2988C10.7592 12.9839 10.0424 13.9512 9.66495 15.0647C9.28753 16.1783 9.26854 17.3821 9.61063 18.507C9.95272 19.6318 10.6387 20.6213 11.5722 21.3361C9.91575 22.0538 8.53262 23.283 7.62528 24.8436C7.54299 24.9861 7.49967 25.1478 7.49968 25.3124C7.49969 25.4769 7.54303 25.6386 7.62533 25.7812C7.70764 25.9237 7.82602 26.042 7.96857 26.1243C8.11111 26.2066 8.27281 26.2498 8.43739 26.2498H21.5624C21.727 26.2498 21.8887 26.2066 22.0312 26.1243C22.1738 26.042 22.2921 25.9237 22.3744 25.7812C22.4568 25.6386 22.5001 25.4769 22.5001 25.3124C22.5001 25.1478 22.4568 24.9861 22.3745 24.8436C21.4652 23.2819 20.0795 22.0527 18.4206 21.3361H18.4124Z" fill="black"/>
</g>
</svg>
