<?xml version="1.0" encoding="utf-8"?>
<!-- Generator: Adobe Illustrator 26.5.0, SVG Export Plug-In . SVG Version: 6.00 Build 0)  -->
<svg version="1.1" id="Calque_1" xmlns="http://www.w3.org/2000/svg" xmlns:xlink="http://www.w3.org/1999/xlink" x="0px" y="0px"
	 viewBox="0 0 39 39" style="enable-background:new 0 0 39 39;" xml:space="preserve">
<style type="text/css">
	.st0{fill:#7D5C67;}
</style>
<g id="Vector">
	<path id="Vector_2" class="st0" d="M36.1,0H2.9c-0.8,0-1.5,0.3-2,0.8C0.3,1.3,0,2.1,0,2.8v33.4c0,0.8,0.3,1.5,0.9,2
		c0.5,0.5,1.3,0.8,2,0.8h33.2c0.8,0,1.5-0.3,2-0.8c0.5-0.5,0.8-1.2,0.9-2V2.8c0-0.8-0.3-1.5-0.9-2C37.6,0.3,36.9,0,36.1,0z
		 M11.6,33.2H5.8V14.6h5.8V33.2z M8.7,12.1c-0.7,0-1.3-0.2-1.9-0.6c-0.6-0.4-1-0.9-1.2-1.5C5.3,9.4,5.3,8.7,5.4,8.1
		c0.1-0.7,0.4-1.2,0.9-1.7C6.8,5.9,7.4,5.6,8,5.4C8.7,5.3,9.4,5.4,10,5.6c0.6,0.3,1.1,0.7,1.5,1.2C11.8,7.4,12,8.1,12,8.7
		c0,0.4-0.1,0.9-0.3,1.3c-0.2,0.4-0.4,0.8-0.7,1.1c-0.3,0.3-0.7,0.6-1.1,0.7C9.5,12,9.1,12.1,8.7,12.1L8.7,12.1z M33.2,33.2h-5.8
		v-9.1c0-2.2,0-4.9-3-4.9c-3,0-3.5,2.4-3.5,4.8v9.2h-5.8V14.6h5.5v2.6h0.1c0.8-1.5,2.7-3,5.5-3c5.9,0,6.9,3.8,6.9,8.8V33.2z"/>
</g>
</svg>
