<svg width="39" height="39" viewBox="0 0 39 39" fill="none" xmlns="http://www.w3.org/2000/svg">
<g id="Property 1=Default">
<path id="Vector" d="M36.123 0.000147688H2.87705C2.12272 -0.00752912 1.39616 0.284348 0.856782 0.811735C0.317405 1.33912 0.00927409 2.05894 0 2.81324V36.1932C0.0109513 36.9463 0.31982 37.6645 0.859013 38.1905C1.39821 38.7165 2.12382 39.0075 2.87705 38.9999H36.123C36.8773 39.0058 37.6034 38.713 38.1425 38.1853C38.6816 37.6575 38.9899 36.9379 39 36.1836V2.80365C38.9865 2.05156 38.6768 1.33517 38.1381 0.810209C37.5993 0.285244 36.8751 -0.00586902 36.123 0.000147688ZM11.5625 33.2458H5.77328V14.6186H11.5625V33.2458ZM8.68549 12.0805C8.02149 12.0811 7.37222 11.8848 6.81982 11.5163C6.26741 11.1479 5.8367 10.6239 5.58216 10.0106C5.32762 9.39737 5.26069 8.72238 5.38984 8.07107C5.519 7.41975 5.83842 6.82138 6.30772 6.35164C6.77702 5.8819 7.37509 5.5619 8.02629 5.43213C8.67748 5.30236 9.35254 5.36864 9.96605 5.6226C10.5796 5.87655 11.104 6.30677 11.4729 6.85881C11.8419 7.41086 12.0389 8.05994 12.0389 8.72393C12.038 9.16526 11.9502 9.60209 11.7803 10.0094C11.6104 10.4167 11.3619 10.7866 11.049 11.0978C10.736 11.4089 10.3648 11.6553 9.95646 11.8229C9.54816 11.9904 9.11084 12.0758 8.66951 12.0741L8.68549 12.0805ZM33.2459 33.2458H27.4566V24.1832C27.4566 22.0254 27.4183 19.2475 24.4485 19.2475C21.4788 19.2475 20.9737 21.6002 20.9737 24.0425V33.2458H15.194V14.6186H20.7435V17.176H20.8202C21.5939 15.7119 23.4799 14.1679 26.2962 14.1679C32.159 14.1551 33.2459 18.0135 33.2459 23.0164V33.2458Z" fill="#F6F6F6"/>
</g>
</svg>
