<svg xmlns="http://www.w3.org/2000/svg" xmlns:xlink="http://www.w3.org/1999/xlink" viewBox="0 0 936.44 650.45"><defs><style>.cls-1{fill:#000003;}.cls-2{fill:url(#Dégradé_sans_nom_5);}.cls-3{fill:url(#Dégradé_sans_nom_5-2);}.cls-4{fill:url(#Dégradé_sans_nom_5-3);}.cls-5{fill:url(#Dégradé_sans_nom_3);}.cls-6{fill:#fff;}</style><linearGradient id="Dégradé_sans_nom_5" x1="167.58" y1="24.32" x2="216.8" y2="156.01" gradientUnits="userSpaceOnUse"><stop offset="0" stop-color="#b9709e"/><stop offset="1" stop-color="#c1425d"/></linearGradient><linearGradient id="Dégradé_sans_nom_5-2" x1="208.13" y1="137.06" x2="245.37" y2="263.43" xlink:href="#Dégradé_sans_nom_5"/><linearGradient id="Dégradé_sans_nom_5-3" x1="94.31" y1="88.22" x2="143.53" y2="287.75" xlink:href="#Dégradé_sans_nom_5"/><linearGradient id="Dégradé_sans_nom_3" x1="881.07" y1="194.43" x2="706.82" y2="577.51" gradientUnits="userSpaceOnUse"><stop offset="0" stop-color="#98c33c"/><stop offset="1" stop-color="#37a949"/></linearGradient></defs><g id="Calque_2" data-name="Calque 2"><path d="M45.54,567H60.22c8.84,0,14.67,4.7,14.67,12.43v.11c0,8.46-7.06,12.83-15.4,12.83H50V606.2H45.54Zm14.12,21.34c6.49,0,10.75-3.48,10.75-8.63v-.11c0-5.6-4.2-8.51-10.53-8.51H50v17.25Z"/><path d="M82.34,577.25h4.31v7.56c2.13-4.82,6.33-8.29,11.81-8.07v4.65h-.33c-6.33,0-11.48,4.54-11.48,13.27V606.2H82.34Z"/><path d="M116.66,603.12a12,12,0,0,0,9.13-4.09l2.69,2.41a14.94,14.94,0,0,1-11.93,5.43c-8,0-14.45-6.1-14.45-15.12,0-8.4,5.88-15.12,13.89-15.12,8.57,0,13.5,6.83,13.5,15.35,0,.39,0,.84-.06,1.51h-23C107.09,599.59,111.57,603.12,116.66,603.12Zm8.46-13.1c-.5-5.27-3.53-9.75-9.24-9.75-5,0-8.79,4.15-9.41,9.75Zm-5.66-25.26,4.48,2.07-6.38,6H114.2Z"/><path d="M132.91,577.25h4.76l9.74,24,9.8-24h4.65l-12.6,29.17h-3.81Z"/><path d="M179.83,603.12A12,12,0,0,0,189,599l2.69,2.41a14.94,14.94,0,0,1-11.93,5.43c-7.95,0-14.45-6.1-14.45-15.12,0-8.4,5.88-15.12,13.89-15.12,8.57,0,13.5,6.83,13.5,15.35,0,.39,0,.84-.06,1.51h-23C170.26,599.59,174.74,603.12,179.83,603.12Zm8.46-13.1c-.51-5.27-3.53-9.75-9.24-9.75-5,0-8.79,4.15-9.41,9.75Z"/><path d="M200.33,577.25h4.31v5a11,11,0,0,1,9.91-5.66c7,0,11.09,4.71,11.09,11.59v18h-4.31V589.29c0-5.38-2.91-8.74-8-8.74s-8.68,3.64-8.68,9.07V606.2h-4.31Z"/><path d="M236.45,598.53V581.06h-4v-3.81h4v-8.74h4.31v8.74h9.18v3.81h-9.18V598c0,3.53,2,4.81,4.87,4.81a9.14,9.14,0,0,0,4.2-1v3.69a10.76,10.76,0,0,1-5.21,1.23C240,606.7,236.45,604.41,236.45,598.53Z"/><path d="M257.78,566.16h4.93v4.76h-4.93Zm.28,11.09h4.32v29h-4.32Z"/><path d="M270.72,591.86v-.11a15.09,15.09,0,0,1,30.18-.11v.11a15,15,0,0,1-15.17,15.12A14.83,14.83,0,0,1,270.72,591.86Zm25.76,0v-.11c0-6.21-4.65-11.31-10.75-11.31-6.28,0-10.59,5.1-10.59,11.2v.11c0,6.22,4.59,11.26,10.7,11.26C292.11,603,296.48,598,296.48,591.86Z"/><path d="M308.8,577.25h4.31v5a11,11,0,0,1,9.91-5.66c7,0,11.09,4.71,11.09,11.59v18H329.8V589.29c0-5.38-2.91-8.74-8-8.74s-8.68,3.64-8.68,9.07V606.2H308.8Z"/><path d="M358.47,600.49l2.74-3.25c4.09,3.7,8,5.54,13.44,5.54,5.27,0,8.74-2.8,8.74-6.66V596c0-3.64-2-5.71-10.19-7.45-9-2-13.16-4.87-13.16-11.31v-.11c0-6.16,5.43-10.7,12.88-10.7a20.39,20.39,0,0,1,13.77,4.82l-2.57,3.41a17.2,17.2,0,0,0-11.31-4.25c-5.1,0-8.35,2.8-8.35,6.32v.12c0,3.69,2,5.76,10.64,7.61s12.77,5.1,12.77,11.09v.11c0,6.72-5.6,11.09-13.38,11.09A22.93,22.93,0,0,1,358.47,600.49Z"/><path d="M396.27,577.25h4.31v5.82c2.35-3.47,5.77-6.44,11.09-6.44,6.94,0,13.83,5.49,13.83,15v.11c0,9.47-6.83,15.07-13.83,15.07-5.38,0-8.85-2.92-11.09-6.16v14.5h-4.31Zm24.81,14.56v-.11c0-6.84-4.71-11.2-10.19-11.2a10.79,10.79,0,0,0-10.48,11.14v.11c0,6.72,5.1,11.2,10.48,11.2C416.49,603,421.08,598.81,421.08,591.81Z"/><path d="M446.33,603.12a12,12,0,0,0,9.13-4.09l2.69,2.41a14.94,14.94,0,0,1-11.93,5.43c-8,0-14.45-6.1-14.45-15.12,0-8.4,5.88-15.12,13.89-15.12,8.57,0,13.5,6.83,13.5,15.35,0,.39,0,.84-.06,1.51h-23C436.76,599.59,441.24,603.12,446.33,603.12Zm8.46-13.1c-.51-5.27-3.53-9.75-9.24-9.75-5,0-8.79,4.15-9.41,9.75Zm-5.66-25.26,4.48,2.07-6.38,6h-3.36Z"/><path d="M465,591.86v-.11a15.08,15.08,0,0,1,26.43-10l-2.86,3c-2.29-2.41-4.87-4.37-8.79-4.37-5.88,0-10.36,5-10.36,11.2v.11c0,6.27,4.59,11.26,10.64,11.26,3.7,0,6.55-1.85,8.85-4.31l2.74,2.57c-2.91,3.25-6.38,5.6-11.81,5.6A14.86,14.86,0,0,1,465,591.86Z"/><path d="M499,566.16H504v4.76H499Zm.28,11.09h4.31v29h-4.31Z"/><path d="M511.57,597.8v-.11c0-6.22,5-9.47,12.38-9.47a30.31,30.31,0,0,1,8.85,1.24v-.9c0-5.15-3.14-7.84-8.57-7.84a20.12,20.12,0,0,0-8.79,2.07l-1.29-3.53a23.8,23.8,0,0,1,10.53-2.46c4.08,0,7.28,1.12,9.35,3.19s3,4.82,3,8.51v17.7H532.8v-4.31a12.72,12.72,0,0,1-10.42,4.93C517,606.82,511.57,603.74,511.57,597.8Zm21.28-2.24v-2.69a30,30,0,0,0-8.45-1.23c-5.38,0-8.46,2.35-8.46,5.82v.12c0,3.64,3.36,5.76,7.28,5.76C528.54,603.34,532.85,600.15,532.85,595.56Z"/><path d="M546.68,565.32H551V606.2h-4.32Z"/><path d="M561.24,566.16h4.93v4.76h-4.93Zm.28,11.09h4.32v29h-4.32Z"/><path d="M573.56,602.5l2.19-3.08a16.84,16.84,0,0,0,10,3.7c3.47,0,6-1.79,6-4.59v-.11c0-2.92-3.41-4-7.22-5.1C580,592,575,590.46,575,585.14V585c0-5,4.15-8.29,9.86-8.29a19.75,19.75,0,0,1,10.41,3.2l-2,3.24a16.37,16.37,0,0,0-8.56-2.8c-3.42,0-5.6,1.8-5.6,4.2v.12c0,2.74,3.58,3.8,7.44,5,4.48,1.34,9.3,3.08,9.3,8.29v.11c0,5.49-4.54,8.68-10.3,8.68A19.87,19.87,0,0,1,573.56,602.5Z"/><path d="M616.74,603.12a12,12,0,0,0,9.13-4.09l2.68,2.41a14.93,14.93,0,0,1-11.92,5.43c-8,0-14.45-6.1-14.45-15.12,0-8.4,5.88-15.12,13.89-15.12,8.56,0,13.49,6.83,13.49,15.35,0,.39,0,.84,0,1.51h-23C607.16,599.59,611.64,603.12,616.74,603.12Zm8.45-13.1c-.5-5.27-3.52-9.75-9.24-9.75-5,0-8.79,4.15-9.4,9.75Zm-5.65-25.26,4.48,2.07-6.39,6h-3.36Z"/><path d="M650,603.12a12,12,0,0,0,9.13-4.09l2.69,2.41a15,15,0,0,1-11.93,5.43c-7.95,0-14.45-6.1-14.45-15.12,0-8.4,5.88-15.12,13.89-15.12,8.57,0,13.49,6.83,13.49,15.35,0,.39,0,.84-.05,1.51h-23C640.43,599.59,644.9,603.12,650,603.12Zm8.46-13.1c-.51-5.27-3.53-9.75-9.24-9.75-5,0-8.79,4.15-9.41,9.75Z"/><path class="cls-1" d="M405.43,175a8.51,8.51,0,0,0-11,4.78L354.59,280.41,316.48,179.89a8.5,8.5,0,1,0-15.9,6l45.89,121a8.52,8.52,0,0,0,7.89,5.49h.06a8.5,8.5,0,0,0,7.9-5.38l47.89-121A8.49,8.49,0,0,0,405.43,175Z"/><path class="cls-1" d="M480.12,174.4A69.53,69.53,0,1,0,531.25,291a8.5,8.5,0,0,0-12.5-11.52,52.51,52.51,0,0,1-90.45-27.09H541.14a8.49,8.49,0,0,0,8.5-8.5A69.6,69.6,0,0,0,480.12,174.4Zm0,17a52.61,52.61,0,0,1,51.83,44H428.3A52.59,52.59,0,0,1,480.12,191.4Z"/><path class="cls-1" d="M200,379.7A26.4,26.4,0,1,0,219.42,424a3.23,3.23,0,0,0-4.75-4.38,19.95,19.95,0,0,1-34.36-10.28h42.86a3.23,3.23,0,0,0,3.23-3.23A26.43,26.43,0,0,0,200,379.7Zm0,6.45a20,20,0,0,1,19.68,16.72H180.31A20,20,0,0,1,200,386.15Z"/><path class="cls-1" d="M707.24,174.4a8.51,8.51,0,0,0-8.5,8.5V305a8.5,8.5,0,1,0,17,0v-122A8.5,8.5,0,0,0,707.24,174.4Z"/><path class="cls-1" d="M811.62,174.43A80.21,80.21,0,0,0,780,179.54a62,62,0,0,0-22.37,14.53V182.9a8.5,8.5,0,1,0-17,0V305a8.5,8.5,0,0,0,17,0V232.18c2.89-18.05,12.3-30.36,28-36.58a64,64,0,0,1,24.78-4.22,8.5,8.5,0,0,0,1.23-16.95Z"/><circle class="cls-1" cx="707.24" cy="141" r="11.97" transform="translate(-13.45 115.11) rotate(-9.22)"/><path class="cls-1" d="M678.16,223.2c0-.37-2.2-28.17-24.34-41.64-7.09-4.31-16.34-7.16-28.38-7.16-13.66,0-24.9,3.78-33.48,11.21v-3.42a8.7,8.7,0,0,0-7.93-8.77A8.5,8.5,0,0,0,575,181.9V304.66a8.7,8.7,0,0,0,7.93,8.77A8.5,8.5,0,0,0,592,305V223.2c.07-.23,3.55-31.77,34.67-31.77A34.8,34.8,0,0,1,644.7,196c14.17,8.75,16.36,23.95,16.46,27.2,0,.16,0,81.46,0,81.46a8.69,8.69,0,0,0,7.93,8.77,8.5,8.5,0,0,0,9.07-8.48S678.17,223.28,678.16,223.2Z"/><path class="cls-1" d="M602.18,410.41a60.17,60.17,0,1,0,44.25,100.93,7.35,7.35,0,1,0-10.81-10,45.45,45.45,0,0,1-78.28-23.44H655a7.35,7.35,0,0,0,7.36-7.36A60.23,60.23,0,0,0,602.18,410.41Zm-44.84,52.81a45.44,45.44,0,0,1,89.69,0Z"/><path class="cls-1" d="M464.15,410.41c-4.56,0-8.27,3.29-8.27,7.35V523.38c0,4.06,3.71,7.36,8.27,7.36s8.27-3.3,8.27-7.36V417.76C472.42,413.7,468.72,410.41,464.15,410.41Z"/><circle class="cls-1" cx="464.15" cy="381.43" r="11.65"/><path class="cls-1" d="M546.66,417.67a7.5,7.5,0,0,0-7.5-7.5H520.87V379.23a7.5,7.5,0,0,0-15,0v30.94H488.76a7.5,7.5,0,0,0,0,15h17.11v98.08a7.5,7.5,0,0,0,15,0V425.17h18.29A7.5,7.5,0,0,0,546.66,417.67Z"/><path class="cls-1" d="M580,397.66a7.48,7.48,0,0,0,3.74-1l36.93-21.32a7.5,7.5,0,1,0-7.5-13l-36.93,21.32a7.5,7.5,0,0,0,3.76,14Z"/><path class="cls-1" d="M433.77,492.12a7.49,7.49,0,0,0-10.57.82,64.08,64.08,0,1,1-.54-83.94,7.5,7.5,0,1,0,11.27-9.9,79.08,79.08,0,1,0,.66,103.6A7.51,7.51,0,0,0,433.77,492.12Z"/><circle class="cls-2" cx="182.93" cy="65.39" r="37.79"/><path class="cls-3" d="M217.86,96.49a46.73,46.73,0,0,1-32.57,15.64L241,241.7H187.4a37.54,37.54,0,0,1-4.54,10.14h62.46l38.49,89.57c17.73,34.14,49.66,20.39,49.66,20.39Z"/><path class="cls-1" d="M249.83,433.42c-9.46,0-20-5.51-20-13.42a3,3,0,0,1,6,0c0,3.27,6.6,7.42,14,7.42,7.2,0,12.58-5.09,12.58-9.64,0-4.82-6-9.26-14.26-10.56-4-.62-16.89-3.38-16.89-12.94,0-6.34,4.5-13.75,17.19-13.75,13.1,0,17.09,8.62,17.26,9a3,3,0,0,1-5.47,2.48c-.14-.29-2.8-5.46-11.79-5.46-10.39,0-11.19,5.93-11.19,7.75,0,3.14,4.64,5.89,11.82,7,11.56,1.8,19.33,8.43,19.33,16.48C268.41,426.11,259.73,433.42,249.83,433.42Z"/><path class="cls-1" d="M142.48,386.62A20.41,20.41,0,1,1,122.07,407a20.42,20.42,0,0,1,20.41-20.4m0-6a26.41,26.41,0,1,0,25.14,34.54c.83-2.56-.63-5.3-.63-8.14,0-3.17,1.34-6.22.32-9a26.44,26.44,0,0,0-24.83-17.36Z"/><path class="cls-1" d="M165.53,434.64a3,3,0,0,1-3-3V414.7l2-7.68-2-8.93V365.3a3,3,0,0,1,6,0v66.34A3,3,0,0,1,165.53,434.64Z"/><path class="cls-4" d="M56.13,65.39S172,77.81,173.59,158.29s-80.88,182.9-80.88,182.9S180.5,191,80.73,230.51C80.73,230.51,219.74,118.82,56.13,65.39Z"/><path class="cls-5" d="M917.92,280.17a210.28,210.28,0,0,0-.12-40c-2.56-34.41-10.37-59.25-10.37-59.25s-32.59-10.64-35.91,66.51c0,0,10,102.29-102.43,132.29,0,0,101.76-51.81,70.5-111.67,0,0-253.39,139-135.67,317.91,0,0,23.27,36.58,57.19,41.23,0,0-47.75-125.51,88.52-219C898.35,375.33,914.62,325.08,917.92,280.17Z"/><path class="cls-6" d="M722.1,528.93c-19.91,0-42.1-11.59-42.1-28.23a6.31,6.31,0,0,1,12.62,0c0,6.88,13.88,15.61,29.48,15.61,15.14,0,26.45-10.71,26.45-20.28,0-10.15-12.61-19.49-30-22.21-8.34-1.3-35.53-7.12-35.53-27.22,0-13.34,9.47-28.93,36.16-28.93,27.56,0,36,18.13,36.31,18.9a6.31,6.31,0,0,1-11.5,5.22c-.29-.61-5.9-11.5-24.81-11.5-21.84,0-23.54,12.49-23.54,16.31,0,6.6,9.76,12.39,24.86,14.75,24.32,3.81,40.66,17.74,40.66,34.68C761.17,513.56,742.92,528.93,722.1,528.93Z"/></g></svg>