<svg width="150" height="80" viewBox="0 0 150 80" fill="none" xmlns="http://www.w3.org/2000/svg">
<g id="Logo footer">
<rect id="Fond logo" width="150" height="80" rx="20" fill="#F6F6F6"/>
<g id="Logo Footer Contact">
<path id="Vector" d="M22 70.3086H23.7978C24.8804 70.3086 25.5944 70.9038 25.5944 71.8827V71.8966C25.5944 72.968 24.7298 73.5214 23.7084 73.5214H22.5462V75.2728H22V70.3086ZM23.7292 73.011C24.524 73.011 25.0458 72.5703 25.0458 71.9182V71.9042C25.0458 71.1951 24.5314 70.8265 23.7562 70.8265H22.5462V73.011H23.7292Z" fill="black"/>
<path id="Vector_2" d="M26.5068 71.6069H27.0346V72.5642C27.2955 71.9538 27.8099 71.5144 28.481 71.5423V72.1311H28.4406C27.6653 72.1311 27.0346 72.7061 27.0346 73.8116V75.273H26.5068V71.6069Z" fill="black"/>
<path id="Vector_3" d="M30.7099 74.8832C30.9213 74.8851 31.1307 74.8399 31.3236 74.7505C31.5166 74.6611 31.6886 74.5297 31.828 74.3653L32.1574 74.6705C31.9805 74.8924 31.7569 75.0697 31.5037 75.1888C31.2506 75.308 30.9745 75.3659 30.6964 75.3581C29.7167 75.3581 28.9268 74.5856 28.9268 73.4433C28.9268 72.3796 29.6469 71.5286 30.6278 71.5286C31.6774 71.5286 32.2811 72.3935 32.2811 73.4725C32.2811 73.5219 32.2811 73.5788 32.2738 73.6637H29.457C29.5379 74.4362 30.0865 74.8832 30.7099 74.8832ZM31.7459 73.2243C31.6847 72.5569 31.3136 71.9895 30.6143 71.9895C30.002 71.9895 29.5379 72.5151 29.4619 73.2243H31.7459ZM31.0528 70.0254L31.6014 70.2875L30.8201 71.0474H30.4086L31.0528 70.0254Z" fill="black"/>
<path id="Vector_4" d="M32.7 71.6055H33.2829L34.4757 74.6448L35.6759 71.6055H36.2454L34.7023 75.2995H34.2357L32.7 71.6055Z" fill="black"/>
<path id="Vector_5" d="M38.4461 74.8819C38.6587 74.8841 38.8691 74.8385 39.063 74.7485C39.2569 74.6584 39.4296 74.5259 39.5691 74.3601L39.8986 74.6653C39.7216 74.8872 39.4981 75.0645 39.2449 75.1837C38.9917 75.3028 38.7156 75.3607 38.4375 75.353C37.4639 75.353 36.6679 74.5805 36.6679 73.4382C36.6679 72.3744 37.388 71.5234 38.369 71.5234C39.4185 71.5234 40.0223 72.3884 40.0223 73.4673C40.0223 73.5167 40.0223 73.5737 40.0149 73.6586H37.1982C37.2741 74.4348 37.8228 74.8819 38.4461 74.8819ZM39.4822 73.2229C39.4197 72.5555 39.0499 71.9882 38.3506 71.9882C37.7383 71.9882 37.2741 72.5138 37.1982 73.2229H39.4822Z" fill="black"/>
<path id="Vector_6" d="M40.9567 71.6075H41.4845V72.2407C41.6041 72.0179 41.7804 71.8332 41.9944 71.7068C42.2084 71.5804 42.4518 71.5172 42.6982 71.5239C43.5554 71.5239 44.0563 72.1204 44.0563 72.9917V75.2711H43.5285V73.1322C43.5285 72.4509 43.1721 72.0254 42.5488 72.0254C41.9254 72.0254 41.4858 72.4864 41.4858 73.174V75.2737H40.9579L40.9567 71.6075Z" fill="black"/>
<path id="Vector_7" d="M45.3802 74.3017V72.0893H44.8903V71.6068H45.3802V70.5H45.908V71.6068H47.0323V72.0893H45.908V74.2345C45.908 74.6816 46.153 74.8437 46.5045 74.8437C46.6832 74.8445 46.8596 74.8011 47.0188 74.717V75.1843C46.8222 75.291 46.6027 75.3446 46.3808 75.3401C45.815 75.3363 45.3802 75.0463 45.3802 74.3017Z" fill="black"/>
<path id="Vector_8" d="M47.9924 70.2012H48.5962V70.804H47.9924V70.2012ZM48.0267 71.6056H48.5558V75.2781H48.0267V71.6056Z" fill="black"/>
<path id="Vector_9" d="M49.5772 73.4573V73.4433C49.5754 72.9365 49.7684 72.4497 50.1137 72.09C50.459 71.7304 50.9283 71.5273 51.4185 71.5254C51.9086 71.5236 52.3793 71.7231 52.7272 72.0802C53.075 72.4373 53.2714 72.9226 53.2732 73.4294V73.4433C53.2752 73.6959 53.2284 73.9463 53.1357 74.18C53.0429 74.4136 52.9061 74.6258 52.7331 74.8041C52.5601 74.9824 52.3545 75.1232 52.1282 75.2183C51.9019 75.3135 51.6596 75.361 51.4154 75.3581C51.1732 75.3612 50.9328 75.3141 50.7084 75.2196C50.4841 75.1252 50.2803 74.9853 50.109 74.8082C49.9377 74.6311 49.8024 74.4203 49.7111 74.1883C49.6197 73.9563 49.5742 73.7077 49.5772 73.4573ZM52.7319 73.4573V73.4433C52.7319 72.6569 52.1624 72.0111 51.4154 72.0111C50.6463 72.0111 50.1185 72.6569 50.1185 73.4294V73.4433C50.1185 74.231 50.6806 74.8693 51.4289 74.8693C52.1967 74.868 52.7319 74.2348 52.7319 73.4573Z" fill="black"/>
<path id="Vector_10" d="M54.2407 71.6075H54.7685V72.2407C54.8881 72.0179 55.0645 71.8332 55.2784 71.7068C55.4924 71.5804 55.7358 71.5172 55.9822 71.5239C56.8395 71.5239 57.3404 72.1204 57.3404 72.9917V75.2711H56.8125V73.1322C56.8125 72.4509 56.4561 72.0254 55.8328 72.0254C55.2094 72.0254 54.7698 72.4864 54.7698 73.174V75.2737H54.2407V71.6075Z" fill="black"/>
<path id="Vector_11" d="M60.3236 74.5488L60.6592 74.1372C61.1601 74.6057 61.6389 74.8388 62.3051 74.8388C62.9505 74.8388 63.3755 74.4842 63.3755 73.9954V73.9802C63.3755 73.5192 63.1306 73.2571 62.1276 73.0367C61.0254 72.7834 60.5159 72.42 60.5159 71.6044V71.5905C60.5159 70.8104 61.1809 70.2355 62.0933 70.2355C62.709 70.2169 63.3096 70.4343 63.7796 70.8459L63.4649 71.2777C63.0813 70.931 62.5892 70.7398 62.0798 70.7395C61.4552 70.7395 61.0572 71.0941 61.0572 71.5398V71.555C61.0572 72.0223 61.3021 72.2845 62.3602 72.5188C63.4184 72.753 63.9242 73.1646 63.9242 73.9232V73.9371C63.9242 74.7881 63.2383 75.3415 62.2855 75.3415C61.5569 75.3505 60.8533 75.0662 60.3236 74.5488Z" fill="black"/>
<path id="Vector_12" d="M64.9529 71.6059H65.4807V72.3429C65.7685 71.9035 66.1874 71.5273 66.8389 71.5273C67.6888 71.5273 68.5326 72.2226 68.5326 73.4269V73.4408C68.5326 74.6401 67.6962 75.3493 66.8389 75.3493C66.18 75.3493 65.755 74.9795 65.4807 74.5692V76.4054H64.9529V71.6059ZM67.9913 73.4497V73.4358C67.9913 72.5696 67.4145 72.0174 66.7434 72.0174C66.5694 72.0225 66.3981 72.0631 66.2393 72.1368C66.0805 72.2105 65.9374 72.316 65.8181 72.447C65.6989 72.5781 65.6059 72.7323 65.5444 72.9007C65.4829 73.069 65.4542 73.2483 65.4599 73.4282V73.4421C65.4599 74.2931 66.0845 74.8605 66.7434 74.8605C67.4292 74.8668 67.9913 74.3362 67.9913 73.4497Z" fill="black"/>
<path id="Vector_13" d="M71.0836 74.8832C71.295 74.8851 71.5044 74.8399 71.6973 74.7505C71.8903 74.6611 72.0624 74.5297 72.2017 74.3653L72.5312 74.6705C72.3542 74.8924 72.1306 75.0697 71.8775 75.1888C71.6243 75.308 71.3482 75.3659 71.0701 75.3581C70.0904 75.3581 69.3005 74.5856 69.3005 73.4433C69.3005 72.3796 70.0206 71.5286 71.0015 71.5286C72.0511 71.5286 72.6548 72.3935 72.6548 73.4725C72.6548 73.5219 72.6548 73.5788 72.6475 73.6637H69.8308C69.9116 74.4362 70.4602 74.8832 71.0836 74.8832ZM72.1197 73.2243C72.0572 72.5569 71.6874 71.9895 70.9881 71.9895C70.3757 71.9895 69.9116 72.5151 69.8357 73.2243H72.1197ZM71.4265 70.0254L71.9752 70.2875L71.1938 71.0474H70.7823L71.4265 70.0254Z" fill="black"/>
<path id="Vector_14" d="M73.3701 73.4561V73.4422C73.3683 73.0528 73.4816 72.6723 73.6949 72.3514C73.9082 72.0306 74.2112 71.7848 74.5633 71.647C74.9155 71.5092 75.2999 71.4861 75.6652 71.5806C76.0304 71.6751 76.359 71.8827 76.6069 72.1758L76.2566 72.5557C75.9762 72.2505 75.6602 72.0023 75.1801 72.0023C74.46 72.0023 73.9114 72.6355 73.9114 73.4206V73.4346C73.9114 74.2286 74.4735 74.8605 75.2144 74.8605C75.6676 74.8605 76.0166 74.6262 76.2983 74.3147L76.6338 74.6402C76.2774 75.0517 75.8525 75.3493 75.1875 75.3493C74.9478 75.349 74.7105 75.2997 74.4892 75.2043C74.268 75.1088 74.0672 74.9691 73.8983 74.7932C73.7294 74.6173 73.5958 74.4086 73.5052 74.1792C73.4145 73.9497 73.3686 73.704 73.3701 73.4561Z" fill="black"/>
<path id="Vector_15" d="M77.5339 70.2012H78.1463V70.804H77.5339V70.2012ZM77.5682 71.6056H78.0961V75.2781H77.5682V71.6056Z" fill="black"/>
<path id="Vector_16" d="M79.0733 74.2082V74.1943C79.0733 73.4066 79.6857 72.995 80.5895 72.995C80.9563 72.9917 81.3215 73.0446 81.6733 73.1521V73.0381C81.6733 72.3859 81.2888 72.0452 80.6238 72.0452C80.2504 72.0472 79.8823 72.1368 79.5473 72.3074L79.3893 71.8604C79.7904 71.6556 80.2316 71.549 80.6789 71.5488C81.1786 71.5488 81.5705 71.6907 81.824 71.9528C82.0775 72.2149 82.1914 72.5632 82.1914 73.0305V75.272H81.6733V74.7262C81.5232 74.9268 81.3293 75.0879 81.1076 75.1964C80.8858 75.3049 80.6424 75.3577 80.3972 75.3505C79.7383 75.3505 79.0733 74.9605 79.0733 74.2082ZM81.6794 73.9246V73.5839C81.3434 73.4812 80.995 73.4288 80.6446 73.4281C79.9857 73.4281 79.6085 73.7257 79.6085 74.1652V74.1804C79.6085 74.6413 80.02 74.9098 80.5001 74.9098C81.1516 74.9098 81.6794 74.5058 81.6794 73.9246Z" fill="black"/>
<path id="Vector_17" d="M83.3732 70.0957H83.9023V75.2727H83.3732V70.0957Z" fill="black"/>
<path id="Vector_18" d="M85.1563 70.2012H85.7601V70.804H85.1563V70.2012ZM85.1906 71.6056H85.7196V75.2781H85.1906V71.6056Z" fill="black"/>
<path id="Vector_19" d="M86.6651 74.8031L86.9333 74.413C87.2817 74.7023 87.7114 74.8667 88.158 74.8816C88.5829 74.8816 88.8928 74.6549 88.8928 74.3003V74.2864C88.8928 73.9166 88.4752 73.7799 88.0086 73.6406C87.4538 73.4734 86.8415 73.2784 86.8415 72.6047V72.5869C86.8415 71.9537 87.3497 71.5371 88.049 71.5371C88.5023 71.546 88.944 71.6864 89.3239 71.9423L89.0789 72.3527C88.7684 72.1354 88.4052 72.0126 88.0306 71.9981C87.6118 71.9981 87.3448 72.226 87.3448 72.5299V72.5451C87.3448 72.8921 87.7832 73.0264 88.2559 73.1783C88.8046 73.348 89.3949 73.5684 89.3949 74.2282V74.2421C89.3949 74.9373 88.8389 75.3413 88.1335 75.3413C87.6002 75.3331 87.0843 75.144 86.6651 74.8031Z" fill="black"/>
<path id="Vector_20" d="M91.9532 74.8832C92.1647 74.8851 92.374 74.8399 92.567 74.7505C92.7599 74.6611 92.932 74.5297 93.0714 74.3653L93.3996 74.6705C93.2228 74.8923 92.9994 75.0695 92.7465 75.1887C92.4935 75.3078 92.2176 75.3658 91.9398 75.3581C90.96 75.3581 90.1701 74.5856 90.1701 73.4433C90.1701 72.3796 90.8902 71.5286 91.8712 71.5286C92.9195 71.5286 93.5233 72.3935 93.5233 73.4725C93.5233 73.5219 93.5233 73.5788 93.5233 73.6637H90.7065C90.78 74.4362 91.3287 74.8832 91.9532 74.8832ZM92.9881 73.2243C92.9268 72.5569 92.557 71.9895 91.8565 71.9895C91.2442 71.9895 90.78 72.5151 90.7053 73.2243H92.9881ZM92.2961 70.0254L92.8448 70.2875L92.0622 71.0474H91.6507L92.2961 70.0254Z" fill="black"/>
<path id="Vector_21" d="M96.0265 74.882C96.2379 74.8839 96.4473 74.8386 96.6402 74.7492C96.8332 74.6599 97.0052 74.5285 97.1446 74.364L97.474 74.6692C97.2967 74.8907 97.0731 75.0677 96.82 75.1868C96.5669 75.3059 96.291 75.3641 96.013 75.3569C95.0394 75.3569 94.2434 74.5844 94.2434 73.4421C94.2434 72.3783 94.9635 71.5273 95.9444 71.5273C96.994 71.5273 97.5965 72.3923 97.5965 73.4712C97.5965 73.5206 97.5965 73.5776 97.5904 73.6625H94.7736C94.8545 74.4349 95.4019 74.882 96.0265 74.882ZM97.0626 73.223C97.0001 72.5556 96.6302 71.9883 95.931 71.9883C95.3186 71.9883 94.8545 72.5139 94.7785 73.223H97.0626Z" fill="black"/>
<path id="Vector_22" d="M66.0747 20.6675C65.8184 20.5641 65.5329 20.5697 65.2805 20.6831C65.0281 20.7965 64.8293 21.0085 64.7276 21.2729L59.8485 34.0164L55.1813 21.2868C55.1355 21.1511 55.064 21.0262 54.9709 20.9196C54.8778 20.8129 54.765 20.7266 54.6391 20.6658C54.5133 20.6049 54.3769 20.5707 54.238 20.5652C54.0992 20.5597 53.9607 20.583 53.8307 20.6338C53.7007 20.6845 53.5818 20.7616 53.4811 20.8606C53.3804 20.9596 53.2998 21.0784 53.2442 21.2101C53.1886 21.3418 53.1591 21.4836 53.1573 21.6273C53.1556 21.7709 53.1816 21.9135 53.234 22.0466L58.854 37.3698C58.9287 37.5728 59.0609 37.7477 59.2333 37.8718C59.4057 37.9958 59.6103 38.0632 59.8203 38.065H59.8277C60.0364 38.0649 60.2403 37.9998 60.4128 37.8783C60.5853 37.7568 60.7185 37.5845 60.7951 37.3837L66.6601 22.0605C66.7608 21.7955 66.7557 21.5 66.646 21.2389C66.5362 20.9777 66.3308 20.7722 66.0747 20.6675Z" fill="#000003"/>
<path id="Vector_23" d="M75.2217 20.5898C73.8061 20.5889 72.4127 20.9529 71.1673 21.649C69.922 22.345 68.8642 23.3511 68.0895 24.5763C67.3147 25.8014 66.8476 27.2069 66.7304 28.6657C66.6132 30.1245 66.8495 31.5905 67.418 32.9311C67.9865 34.2716 68.8692 35.4445 69.9863 36.3436C71.1034 37.2426 72.4197 37.8395 73.816 38.0802C75.2124 38.3209 76.6447 38.1979 77.9834 37.7222C79.3222 37.2465 80.5252 36.4332 81.4835 35.3558C81.6668 35.1453 81.7624 34.8685 81.7497 34.5855C81.7369 34.3025 81.6167 34.0361 81.4153 33.8441C81.2138 33.6521 80.9473 33.55 80.6735 33.5599C80.3997 33.5698 80.1407 33.6909 79.9527 33.897C79.1359 34.8141 78.0863 35.4754 76.9236 35.8054C75.7609 36.1353 74.5318 36.1206 73.3768 35.7628C72.2218 35.4051 71.1873 34.7188 70.3914 33.7823C69.5954 32.8458 69.0702 31.6968 68.8755 30.4663H82.6947C82.8314 30.4665 82.9669 30.4388 83.0932 30.3847C83.2196 30.3307 83.3344 30.2514 83.4311 30.1514C83.5278 30.0514 83.6045 29.9327 83.6568 29.802C83.709 29.6714 83.7358 29.5313 83.7357 29.3899C83.7321 27.0565 82.8338 24.8197 81.2378 23.1701C79.6418 21.5204 77.4783 20.5925 75.2217 20.5898ZM75.2217 22.7427C76.7462 22.7448 78.2206 23.3058 79.3828 24.3261C80.545 25.3463 81.3197 26.7596 81.5692 28.3148H68.8755C69.1245 26.7596 69.8989 25.3462 71.0609 24.3259C72.223 23.3056 73.6973 22.7446 75.2217 22.7427Z" fill="#000003"/>
<path id="Vector_24" d="M40.9163 46.5898C40.3791 46.5902 39.8505 46.7289 39.3783 46.9934C38.906 47.2579 38.5048 47.64 38.2111 48.105C37.9174 48.57 37.7404 49.1034 37.696 49.6569C37.6517 50.2104 37.7414 50.7667 37.957 51.2754C38.1727 51.7841 38.5075 52.2292 38.9312 52.5705C39.3549 52.9118 39.8542 53.1386 40.384 53.2304C40.9137 53.3221 41.4572 53.276 41.9654 53.0961C42.4736 52.9161 42.9304 52.6082 43.2946 52.1999C43.3657 52.1201 43.4033 52.0144 43.399 51.906C43.3948 51.7976 43.3491 51.6954 43.2719 51.6218C43.1948 51.5482 43.0925 51.5094 42.9877 51.5138C42.8829 51.5182 42.784 51.5655 42.7129 51.6452C42.4026 51.9935 42.004 52.2446 41.5625 52.37C41.1209 52.4953 40.6541 52.4898 40.2155 52.3541C39.7768 52.2183 39.3838 51.9579 39.0813 51.6024C38.7789 51.2469 38.5792 50.8106 38.5049 50.3434H43.7538C43.8587 50.3434 43.9594 50.3003 44.0335 50.2236C44.1077 50.1469 44.1494 50.0428 44.1494 49.9343C44.1487 49.0478 43.8079 48.1976 43.2018 47.5706C42.5956 46.9436 41.7737 46.5908 40.9163 46.5898ZM40.9163 47.4067C41.4952 47.4081 42.0549 47.6216 42.4961 48.0092C42.9373 48.3968 43.2315 48.9335 43.3264 49.524H38.5049C38.5999 48.9333 38.8942 48.3964 39.3357 48.0088C39.7771 47.6212 40.3371 47.4078 40.9163 47.4067Z" fill="#000003"/>
<path id="Vector_25" d="M103.037 20.5898C102.761 20.5902 102.496 20.7037 102.301 20.9055C102.106 21.1073 101.996 21.3809 101.996 21.6663V37.1287C101.996 37.4142 102.105 37.688 102.3 37.8899C102.496 38.0918 102.76 38.2052 103.037 38.2052C103.313 38.2052 103.577 38.0918 103.773 37.8899C103.968 37.688 104.077 37.4142 104.077 37.1287V21.6789C104.079 21.5365 104.053 21.3952 104.002 21.2631C103.95 21.131 103.874 21.0109 103.777 20.9096C103.68 20.8083 103.565 20.7279 103.438 20.673C103.311 20.6181 103.174 20.5898 103.037 20.5898Z" fill="#000003"/>
<path id="Vector_26" d="M115.82 20.5944C114.5 20.5387 113.183 20.7588 111.947 21.2415C110.916 21.6421 109.981 22.2699 109.208 23.0816V21.667C109.208 21.3815 109.098 21.1077 108.903 20.9059C108.708 20.704 108.443 20.5906 108.167 20.5906C107.891 20.5906 107.626 20.704 107.431 20.9059C107.235 21.1077 107.126 21.3815 107.126 21.667V37.1295C107.126 37.415 107.235 37.6888 107.431 37.8906C107.626 38.0925 107.891 38.2059 108.167 38.2059C108.443 38.2059 108.708 38.0925 108.903 37.8906C109.098 37.6888 109.208 37.415 109.208 37.1295V27.9077C109.562 25.6219 110.714 24.063 112.637 23.2753C113.604 22.8915 114.636 22.7098 115.671 22.7409C115.943 22.7541 116.208 22.6573 116.411 22.471C116.614 22.2846 116.739 22.0236 116.759 21.7436C116.778 21.4635 116.691 21.1867 116.517 20.972C116.342 20.7573 116.092 20.6218 115.822 20.5944H115.82Z" fill="#000003"/>
<path id="Vector_27" d="M103.272 17.8532C104.071 17.719 104.614 16.9404 104.484 16.114C104.354 15.2877 103.601 14.7265 102.802 14.8606C102.003 14.9948 101.46 15.7734 101.59 16.5998C101.72 17.4262 102.473 17.9873 103.272 17.8532Z" fill="#000003"/>
<path id="Vector_28" d="M99.4752 26.771C99.4752 26.7241 99.2057 23.2036 96.4943 21.4978C95.626 20.952 94.4932 20.591 93.0187 20.591C91.3458 20.591 89.9693 21.0697 88.9185 22.0107V21.5776C88.9217 21.3 88.8235 21.0314 88.6434 20.8254C88.4634 20.6195 88.2148 20.4915 87.9473 20.4669C87.8055 20.4578 87.6633 20.4787 87.5296 20.5286C87.3959 20.5784 87.2734 20.656 87.1698 20.7566C87.0662 20.8572 86.9836 20.9787 86.9272 21.1136C86.8707 21.2484 86.8415 21.3939 86.8415 21.5408V37.0869C86.8382 37.3645 86.9365 37.6331 87.1166 37.839C87.2966 38.0449 87.5452 38.173 87.8126 38.1975C87.9544 38.2074 88.0966 38.1871 88.2304 38.138C88.3643 38.0889 88.4871 38.012 88.5911 37.912C88.6952 37.812 88.7783 37.691 88.8355 37.5565C88.8926 37.422 88.9226 37.2768 88.9234 37.1299V26.771C88.932 26.7418 89.3582 22.7477 93.1693 22.7477C93.9425 22.7299 94.7058 22.9299 95.3774 23.3264C97.1128 24.4345 97.381 26.3594 97.3932 26.771C97.3932 26.7912 97.3932 37.0869 97.3932 37.0869C97.3897 37.3646 97.4879 37.6333 97.668 37.8393C97.8481 38.0453 98.0969 38.1732 98.3644 38.1975C98.5067 38.2074 98.6494 38.187 98.7837 38.1375C98.918 38.088 99.041 38.0105 99.1451 37.9098C99.2493 37.8091 99.3323 37.6874 99.3891 37.5521C99.4459 37.4169 99.4752 37.271 99.4752 37.1236C99.4752 37.1236 99.4764 26.7811 99.4752 26.771Z" fill="#000003"/>
<path id="Vector_29" d="M90.1701 50.4785C88.9454 50.4783 87.74 50.7937 86.6628 51.3962C85.5856 51.9988 84.6706 52.8694 84.0006 53.9295C83.3305 54.9896 82.9266 56.2056 82.8252 57.4677C82.7238 58.7297 82.9283 59.998 83.42 61.1579C83.9118 62.3177 84.6753 63.3325 85.6417 64.1106C86.608 64.8886 87.7466 65.4053 88.9546 65.614C90.1625 65.8226 91.4018 65.7167 92.5602 65.3057C93.7186 64.8947 94.7597 64.1916 95.5893 63.2601C95.6697 63.1702 95.7322 63.0648 95.7733 62.9499C95.8143 62.8351 95.833 62.713 95.8284 62.5906C95.8238 62.4683 95.796 62.348 95.7464 62.2368C95.6969 62.1256 95.6266 62.0256 95.5397 61.9424C95.4528 61.8593 95.3509 61.7946 95.2398 61.7522C95.1287 61.7098 95.0106 61.6904 94.8923 61.6952C94.774 61.6999 94.6577 61.7287 94.5502 61.78C94.4426 61.8312 94.3459 61.9038 94.2654 61.9937C93.5586 62.7872 92.6502 63.3593 91.644 63.6447C90.6378 63.9302 89.5744 63.9174 88.5749 63.6079C87.5753 63.2984 86.6801 62.7047 85.9912 61.8944C85.3023 61.0842 84.8475 60.09 84.6787 59.0253H96.6389C96.7573 59.0255 96.8745 59.0015 96.984 58.9547C97.0934 58.9079 97.1928 58.8393 97.2766 58.7527C97.3603 58.6661 97.4267 58.5633 97.4719 58.4501C97.5172 58.337 97.5404 58.2157 97.5402 58.0932C97.537 56.0736 96.7592 54.1378 95.3776 52.7103C93.996 51.2828 92.1232 50.4802 90.1701 50.4785ZM84.6787 57.1663C84.8917 55.8189 85.561 54.5937 86.5671 53.7095C87.5731 52.8254 88.8504 52.34 90.1708 52.34C91.4911 52.34 92.7684 52.8254 93.7744 53.7095C94.7805 54.5937 95.4498 55.8189 95.6628 57.1663H84.6787Z" fill="#000003"/>
<path id="Vector_30" d="M73.2659 50.4785C72.7075 50.4785 72.2531 50.8952 72.2531 51.4093V64.7848C72.2531 65.2989 72.7075 65.7168 73.2659 65.7168C73.8244 65.7168 74.2788 65.2989 74.2788 64.7848V51.4093C74.2788 50.8952 73.8256 50.4785 73.2659 50.4785Z" fill="#000003"/>
<path id="Vector_31" d="M73.266 48.2827C74.0539 48.2827 74.6927 47.6222 74.6927 46.8074C74.6927 45.9926 74.0539 45.332 73.266 45.332C72.478 45.332 71.8392 45.9926 71.8392 46.8074C71.8392 47.6222 72.478 48.2827 73.266 48.2827Z" fill="#000003"/>
<path id="Vector_32" d="M83.3707 51.3978C83.3707 51.1459 83.274 50.9043 83.1017 50.7262C82.9294 50.5481 82.6958 50.448 82.4522 50.448H80.2123V46.5299C80.2123 46.278 80.1155 46.0364 79.9433 45.8583C79.771 45.6801 79.5374 45.5801 79.2938 45.5801C79.0502 45.5801 78.8166 45.6801 78.6443 45.8583C78.4721 46.0364 78.3753 46.278 78.3753 46.5299V50.448H76.2799C76.0363 50.448 75.8026 50.5481 75.6304 50.7262C75.4581 50.9043 75.3614 51.1459 75.3614 51.3978C75.3614 51.6497 75.4581 51.8913 75.6304 52.0694C75.8026 52.2475 76.0363 52.3476 76.2799 52.3476H78.3753V64.7682C78.3753 65.0201 78.4721 65.2617 78.6443 65.4398C78.8166 65.618 79.0502 65.718 79.2938 65.718C79.5374 65.718 79.771 65.618 79.9433 65.4398C80.1155 65.2617 80.2123 65.0201 80.2123 64.7682V52.3476H82.4522C82.6958 52.3476 82.9294 52.2475 83.1017 52.0694C83.274 51.8913 83.3707 51.6497 83.3707 51.3978Z" fill="#000003"/>
<path id="Vector_33" d="M87.4538 48.8637C87.6146 48.8638 87.7726 48.8201 87.9118 48.737L92.4345 46.0371C92.5391 45.9748 92.6307 45.8917 92.7042 45.7927C92.7777 45.6938 92.8316 45.5808 92.8629 45.4602C92.8942 45.3397 92.9022 45.214 92.8865 45.0902C92.8708 44.9665 92.8316 44.8472 92.7713 44.7391C92.711 44.631 92.6307 44.5362 92.535 44.4602C92.4393 44.3842 92.33 44.3285 92.2134 44.2961C92.0969 44.2638 91.9753 44.2555 91.8556 44.2718C91.736 44.288 91.6206 44.3285 91.516 44.3908L86.9933 47.0908C86.8178 47.1952 86.6806 47.3567 86.6031 47.5501C86.5255 47.7435 86.512 47.958 86.5645 48.1603C86.617 48.3625 86.7327 48.5411 86.8935 48.6683C87.0543 48.7955 87.2513 48.8642 87.4538 48.8637Z" fill="#000003"/>
<path id="Vector_34" d="M69.5454 60.827C69.4539 60.7458 69.3477 60.6841 69.2331 60.6453C69.1185 60.6066 68.9976 60.5917 68.8773 60.6013C68.7571 60.611 68.6399 60.645 68.5324 60.7016C68.4249 60.7581 68.3293 60.836 68.2509 60.9308C67.2109 62.1878 65.8242 63.0861 64.2767 63.5053C62.7291 63.9245 61.0946 63.8447 59.5922 63.2764C58.0897 62.7082 56.7911 61.6787 55.8704 60.3259C54.9496 58.9731 54.4506 57.3617 54.4403 55.7075C54.4301 54.0532 54.9089 52.4353 55.8128 51.0703C56.7167 49.7054 58.0023 48.6588 59.4976 48.0706C60.9928 47.4824 62.6262 47.3808 64.1788 47.7794C65.7315 48.178 67.1292 49.0578 68.1848 50.3008C68.3456 50.4901 68.5725 50.6055 68.8156 50.6218C69.0587 50.6381 69.2981 50.5538 69.4811 50.3876C69.6641 50.2213 69.7758 49.9867 69.7915 49.7353C69.8073 49.4839 69.7258 49.2364 69.565 49.0471C68.2623 47.5132 66.5375 46.4276 64.6214 45.9357C62.7054 45.4438 60.6898 45.5692 58.8446 46.295C56.9994 47.0208 55.4128 48.3124 54.2973 49.9967C53.1819 51.681 52.5908 53.6776 52.6034 55.7189C52.616 57.7603 53.2316 59.749 54.3677 61.4184C55.5038 63.0879 57.1062 64.3585 58.9602 65.0599C60.8142 65.7614 62.8312 65.8602 64.741 65.3431C66.6508 64.826 68.3622 63.7177 69.6458 62.1668C69.8041 61.9753 69.8825 61.7266 69.8636 61.4754C69.8448 61.2242 69.7304 60.991 69.5454 60.827Z" fill="#000003"/>
<path id="Vector_35" d="M38.8257 11.5713C41.3817 11.5713 43.4538 9.42868 43.4538 6.78564C43.4538 4.14261 41.3817 2 38.8257 2C36.2698 2 34.1977 4.14261 34.1977 6.78564C34.1977 9.42868 36.2698 11.5713 38.8257 11.5713Z" fill="url(#paint0_linear_1219_454)"/>
<path id="Vector_36" d="M43.1035 10.7246C42.5991 11.312 41.9866 11.7896 41.3018 12.1297C40.617 12.4697 39.8735 12.6654 39.1148 12.7052L45.9374 29.1137H39.3732C39.2505 29.5679 39.0631 30.0006 38.8172 30.3978H46.4665L51.1803 41.7408C53.3516 46.0642 57.262 44.3229 57.262 44.3229L43.1035 10.7246Z" fill="url(#paint1_linear_1219_454)"/>
<path id="Vector_37" d="M47.0188 53.3912C45.8603 53.3912 44.5695 52.6935 44.5695 51.6918C44.5695 51.591 44.6082 51.4944 44.6771 51.4231C44.746 51.3519 44.8394 51.3118 44.9369 51.3118C45.0343 51.3118 45.1278 51.3519 45.1967 51.4231C45.2656 51.4944 45.3043 51.591 45.3043 51.6918C45.3043 52.1059 46.1126 52.6314 47.0188 52.6314C47.9006 52.6314 48.5595 51.9868 48.5595 51.4106C48.5595 50.8002 47.8246 50.238 46.8131 50.0733C46.3232 49.9948 44.7446 49.6453 44.7446 48.4346C44.7446 47.6317 45.2957 46.6934 46.8498 46.6934C48.4541 46.6934 48.9428 47.785 48.9636 47.8331C48.9835 47.8786 48.9946 47.9277 48.9962 47.9776C48.9978 48.0275 48.9899 48.0773 48.9729 48.124C48.9559 48.1707 48.9301 48.2136 48.8971 48.25C48.8641 48.2865 48.8245 48.3159 48.7805 48.3365C48.7365 48.3571 48.689 48.3686 48.6408 48.3702C48.5925 48.3719 48.5444 48.3637 48.4992 48.3461C48.454 48.3285 48.4126 48.3019 48.3773 48.2678C48.3421 48.2336 48.3136 48.1926 48.2937 48.1472C48.2766 48.1104 47.9508 47.4557 46.8498 47.4557C45.5774 47.4557 45.4794 48.2067 45.4794 48.4372C45.4794 48.8348 46.0477 49.1831 46.927 49.3236C48.3427 49.5516 49.2943 50.3912 49.2943 51.4106C49.2943 52.4655 48.2312 53.3912 47.0188 53.3912Z" fill="#000003"/>
<path id="Vector_38" d="M33.872 47.4655C34.3665 47.4655 34.8499 47.6172 35.261 47.9013C35.6721 48.1855 35.9925 48.5894 36.1816 49.0619C36.3707 49.5344 36.42 50.0543 36.3232 50.5558C36.2265 51.0573 35.988 51.5178 35.6381 51.8791C35.2882 52.2405 34.8424 52.4863 34.3573 52.5856C33.8722 52.6849 33.3695 52.6332 32.9129 52.437C32.4562 52.2408 32.0661 51.9089 31.7919 51.4834C31.5177 51.0578 31.3717 50.5577 31.3724 50.0464C31.3731 49.3612 31.6366 48.7043 32.1053 48.2199C32.5739 47.7355 33.2093 47.4633 33.872 47.463M33.872 46.7031C33.2754 46.7034 32.6905 46.8743 32.182 47.197C31.6735 47.5196 31.2612 47.9814 30.9907 48.5312C30.7202 49.0811 30.602 49.6976 30.6493 50.3126C30.6966 50.9275 30.9074 51.517 31.2585 52.0158C31.6095 52.5146 32.0872 52.9032 32.6386 53.1388C33.19 53.3743 33.7936 53.4476 34.3828 53.3504C34.9719 53.2533 35.5236 52.9895 35.9768 52.5883C36.4301 52.1871 36.7671 51.6641 36.9508 51.0772C37.0524 50.753 36.8736 50.406 36.8736 50.0464C36.8736 49.6449 37.0377 49.2587 36.9128 48.9066C36.6849 48.2621 36.271 47.7056 35.7271 47.3124C35.1832 46.9191 34.5356 46.7082 33.872 46.7082V46.7031Z" fill="#000003"/>
<path id="Vector_39" d="M36.6948 53.5477C36.5974 53.5477 36.5039 53.5077 36.435 53.4364C36.3661 53.3652 36.3274 53.2685 36.3274 53.1678V51.0225L36.5724 50.05L36.3274 48.9191V44.7666C36.3274 44.6659 36.3661 44.5692 36.435 44.498C36.5039 44.4267 36.5974 44.3867 36.6948 44.3867C36.7923 44.3867 36.8857 44.4267 36.9546 44.498C37.0235 44.5692 37.0622 44.6659 37.0622 44.7666V53.1678C37.0622 53.2685 37.0235 53.3652 36.9546 53.4364C36.8857 53.5077 36.7923 53.5477 36.6948 53.5477Z" fill="#000003"/>
<path id="Vector_40" d="M23.2969 6.78516C23.2969 6.78516 37.4872 8.358 37.6819 18.5498C37.8766 28.7416 27.7768 41.7119 27.7768 41.7119C27.7768 41.7119 38.5282 22.6921 26.3096 27.6956C26.3096 27.6956 43.3338 13.5514 23.2969 6.78516Z" fill="url(#paint2_linear_1219_454)"/>
<path id="Vector_41" d="M128.838 33.9833C128.989 32.2982 128.984 30.602 128.823 28.9178C128.51 24.5602 127.553 21.4145 127.553 21.4145C127.553 21.4145 123.562 20.0671 123.155 29.8372C123.155 29.8372 124.38 42.791 110.611 46.5901C110.611 46.5901 123.073 40.029 119.245 32.4485C119.245 32.4485 88.2131 50.0512 102.63 72.7079C102.63 72.7079 105.48 77.3403 109.634 77.9292C109.634 77.9292 103.786 62.0349 120.475 50.1955C126.441 46.0342 128.434 39.6707 128.838 33.9833Z" fill="url(#paint3_linear_1219_454)"/>
<path id="Vector_42" d="M104.856 65.4882C102.418 65.4882 99.7005 64.0204 99.7005 61.9132C99.7005 61.7012 99.7819 61.498 99.9268 61.3481C100.072 61.1983 100.268 61.1141 100.473 61.1141C100.678 61.1141 100.875 61.1983 101.02 61.3481C101.165 61.498 101.246 61.7012 101.246 61.9132C101.246 62.7844 102.946 63.89 104.856 63.89C106.711 63.89 108.096 62.5337 108.096 61.3218C108.096 60.0364 106.551 58.8536 104.422 58.5092C103.4 58.3445 100.07 57.6075 100.07 55.0621C100.07 53.3727 101.23 51.3984 104.499 51.3984C107.874 51.3984 108.908 53.6944 108.946 53.7919C109.03 53.985 109.037 54.2051 108.965 54.4036C108.893 54.6021 108.748 54.7629 108.561 54.8506C108.374 54.9382 108.161 54.9456 107.969 54.871C107.777 54.7965 107.622 54.6461 107.537 54.4529C107.502 54.3757 106.815 52.9966 104.499 52.9966C101.824 52.9966 101.616 54.5783 101.616 55.0621C101.616 55.8979 102.811 56.6311 104.66 56.93C107.639 57.4125 109.64 59.1765 109.64 61.3218C109.641 63.5417 107.406 65.4882 104.856 65.4882Z" fill="white"/>
</g>
</g>
<defs>
<linearGradient id="paint0_linear_1219_454" x1="36.9459" y1="1.58463" x2="43.337" y2="18.1212" gradientUnits="userSpaceOnUse">
<stop stop-color="#B9709E"/>
<stop offset="1" stop-color="#C1425D"/>
</linearGradient>
<linearGradient id="paint1_linear_1219_454" x1="41.9119" y1="15.8623" x2="46.7617" y2="31.7774" gradientUnits="userSpaceOnUse">
<stop stop-color="#B9709E"/>
<stop offset="1" stop-color="#C1425D"/>
</linearGradient>
<linearGradient id="paint2_linear_1219_454" x1="27.9727" y1="9.6763" x2="34.3926" y2="34.8443" gradientUnits="userSpaceOnUse">
<stop stop-color="#B9709E"/>
<stop offset="1" stop-color="#C1425D"/>
</linearGradient>
<linearGradient id="paint3_linear_1219_454" x1="124.325" y1="23.1254" x2="101.775" y2="71.0685" gradientUnits="userSpaceOnUse">
<stop stop-color="#98C33C"/>
<stop offset="1" stop-color="#37A949"/>
</linearGradient>
</defs>
</svg>
