<svg width="23" height="23" viewBox="0 0 23 23" fill="none" xmlns="http://www.w3.org/2000/svg">
<path id="Logo t&#195;&#169;l&#195;&#169;phone" fill-rule="evenodd" clip-rule="evenodd" d="M2.71028 0.733403C2.9618 0.482244 3.26382 0.28741 3.59632 0.161813C3.92883 0.0362152 4.28423 -0.0172781 4.63897 0.00487797C4.99371 0.027034 5.33969 0.124334 5.65399 0.290328C5.96829 0.456323 6.24372 0.687223 6.46204 0.967727L9.04227 4.28275C9.51519 4.89084 9.68194 5.68294 9.49507 6.43048L8.70878 9.57875C8.66813 9.74181 8.67032 9.91261 8.71515 10.0746C8.75999 10.2365 8.84593 10.3842 8.96465 10.5031L12.4965 14.0352C12.6155 14.1542 12.7634 14.2403 12.9256 14.2851C13.0879 14.3299 13.2589 14.332 13.4222 14.2911L16.5688 13.5047C16.9377 13.4125 17.3227 13.4053 17.6947 13.4838C18.0668 13.5622 18.4161 13.7242 18.7163 13.9576L22.0311 16.5366C23.2228 17.4638 23.332 19.2248 22.2654 20.2901L20.7791 21.7765C19.7154 22.8403 18.1255 23.3075 16.6435 22.7857C12.8504 21.4509 9.40634 19.2792 6.56697 16.4316C3.71979 13.5925 1.54825 10.1487 0.21342 6.35572C-0.306938 4.87503 0.160234 3.28365 1.22395 2.21985L2.71028 0.733403Z" fill="#4ECB71"/>
</svg>
