<svg width="30" height="30" viewBox="0 0 30 30" fill="none" xmlns="http://www.w3.org/2000/svg">
<g id="ic:round-fiber-new">
<path id="Vector" d="M25 5H5C3.6125 5 2.5125 6.1125 2.5125 7.5L2.5 22.5C2.5 23.8875 3.6125 25 5 25H25C26.3875 25 27.5 23.8875 27.5 22.5V7.5C27.5 6.1125 26.3875 5 25 5ZM10.625 17.7625C10.625 18.3 10.175 18.75 9.6375 18.75C9.325 18.75 9.025 18.6 8.8375 18.3375L5.9375 14.375V17.975C5.9375 18.4125 5.5875 18.75 5.1625 18.75C4.7375 18.75 4.375 18.4 4.375 17.975V12.2375C4.375 11.7 4.825 11.25 5.3625 11.25H5.425C5.75 11.25 6.05 11.4 6.2375 11.6625L9.0625 15.625V12.025C9.0625 11.6 9.4125 11.25 9.85 11.25C10.2875 11.25 10.625 11.6 10.625 12.025V17.7625ZM16.875 12.05C16.875 12.4875 16.525 12.825 16.1 12.825H13.75V14.225H16.1C16.5375 14.225 16.875 14.575 16.875 15V15.0125C16.875 15.45 16.525 15.7875 16.1 15.7875H13.75V17.175H16.1C16.5375 17.175 16.875 17.525 16.875 17.95C16.875 18.3875 16.525 18.725 16.1 18.725H12.9375C12.6557 18.725 12.3855 18.6131 12.1862 18.4138C11.9869 18.2145 11.875 17.9443 11.875 17.6625V12.2875C11.875 11.725 12.35 11.25 12.9375 11.25H16.1C16.5375 11.25 16.875 11.6 16.875 12.025V12.05ZM25.625 17.5C25.625 18.1875 25.0625 18.75 24.375 18.75H19.375C18.6875 18.75 18.125 18.1875 18.125 17.5V12.025C18.125 11.6 18.475 11.25 18.9 11.25C19.325 11.25 19.675 11.6 19.675 12.025V16.8875H21.0875V13.2625C21.0875 12.825 21.4375 12.4875 21.8625 12.4875C22.2875 12.4875 22.6375 12.8375 22.6375 13.2625V16.875H24.0375V12.025C24.0375 11.5875 24.3875 11.25 24.8125 11.25C25.2375 11.25 25.5875 11.6 25.5875 12.025V17.5H25.625Z" fill="black"/>
</g>
</svg>
