<svg width="30" height="30" viewBox="0 0 30 30" fill="none" xmlns="http://www.w3.org/2000/svg">
<g id="ph:handshake-thin">
<path id="Vector" d="M13.5796 25.4297C13.5536 25.5304 13.4948 25.6197 13.4125 25.6833C13.3302 25.747 13.229 25.7814 13.125 25.7812C13.0855 25.7814 13.0461 25.7767 13.0078 25.7672L9.25777 24.8297C9.20561 24.8167 9.15606 24.7949 9.11129 24.7652L6.29879 22.8902C6.24754 22.8561 6.20353 22.8121 6.16925 22.761C6.13498 22.7098 6.11113 22.6524 6.09905 22.592C6.08697 22.5316 6.0869 22.4694 6.09886 22.409C6.11081 22.3486 6.13454 22.2911 6.16871 22.2398C6.23771 22.1363 6.34499 22.0645 6.46696 22.0401C6.52736 22.028 6.58954 22.028 6.64996 22.0399C6.71038 22.0519 6.76785 22.0756 6.8191 22.1098L9.56363 23.9402L13.2421 24.8578C13.3019 24.8731 13.3581 24.9 13.4074 24.9371C13.4567 24.9741 13.4983 25.0205 13.5296 25.0737C13.561 25.1268 13.5815 25.1856 13.5901 25.2467C13.5987 25.3078 13.5951 25.37 13.5796 25.4297ZM29.1386 14.0918C29.0811 14.267 28.9893 14.429 28.8685 14.5684C28.7478 14.7078 28.6006 14.8218 28.4355 14.9039L25.5925 16.3266L19.0839 22.8351C19.0261 22.8913 18.9547 22.9317 18.8767 22.9522C18.7987 22.9727 18.7167 22.9728 18.6386 22.9523L11.1386 21.0773C11.0812 21.0634 11.027 21.0383 10.9793 21.0035L4.44488 16.3406L1.56676 14.9004C1.40154 14.8178 1.25421 14.7035 1.13316 14.564C1.01212 14.4245 0.919747 14.2626 0.86131 14.0874C0.802873 13.9122 0.77952 13.7272 0.792586 13.5429C0.805652 13.3587 0.85488 13.1789 0.937458 13.0137L3.8484 7.19179C3.93095 7.02657 4.04524 6.87924 4.18473 6.7582C4.32423 6.63716 4.48621 6.54478 4.66141 6.48634C4.83661 6.42791 5.02161 6.40455 5.20584 6.41762C5.39006 6.43069 5.56991 6.47991 5.73511 6.56249L8.48433 7.9371L14.8711 6.11132C14.9554 6.08789 15.0445 6.08789 15.1289 6.11132L21.5156 7.9371L24.2648 6.56249C24.43 6.47991 24.6099 6.43069 24.7941 6.41762C24.9783 6.40455 25.1633 6.42791 25.3385 6.48634C25.5137 6.54478 25.6757 6.63716 25.8152 6.7582C25.9547 6.87924 26.069 7.02657 26.1515 7.19179L29.0625 13.0148C29.1456 13.1798 29.1952 13.3596 29.2083 13.5439C29.2213 13.7282 29.1977 13.9132 29.1386 14.0883V14.0918ZM1.98511 14.0625L4.47769 15.3082L7.80816 8.64726L5.31676 7.40155C5.26174 7.37393 5.20182 7.3574 5.14042 7.35294C5.07902 7.34847 5.01734 7.35613 4.9589 7.3755C4.90046 7.39487 4.84641 7.42557 4.79984 7.46583C4.75327 7.50609 4.71508 7.55513 4.68746 7.61015L1.77652 13.4332C1.74889 13.4882 1.73237 13.5481 1.7279 13.6095C1.72343 13.6709 1.7311 13.7326 1.75047 13.791C1.76984 13.8495 1.80053 13.9035 1.84079 13.9501C1.88105 13.9967 1.93009 14.0349 1.98511 14.0625ZM22.7343 17.8512L18.7757 14.6801C16.6043 16.6441 13.7625 16.9664 11.4328 15.4781C11.2548 15.3653 11.1044 15.2138 10.9928 15.035C10.8812 14.8562 10.8112 14.6546 10.788 14.4451C10.7648 14.2356 10.7891 14.0235 10.8589 13.8247C10.9287 13.6258 11.0423 13.4451 11.1914 13.2961L16.5468 8.10116C16.6347 8.01585 16.7525 7.96832 16.875 7.96874H18.2156L15 7.04999L8.76441 8.83124L5.28629 15.7887L11.4503 20.1914L18.6058 21.9809L22.7343 17.8512ZM24.7406 15.8449L21.273 8.90624H17.0648L11.8511 13.9641C11.8026 14.0127 11.7657 14.0717 11.7431 14.1367C11.7206 14.2016 11.7131 14.2708 11.7211 14.3391C11.7285 14.4102 11.7519 14.4787 11.7894 14.5395C11.8269 14.6004 11.8777 14.652 11.9378 14.6906C13.5726 15.7348 16.1332 16.0312 18.4171 13.7297C18.4987 13.6476 18.6078 13.5986 18.7233 13.5921C18.8388 13.5856 18.9527 13.6221 19.0429 13.6945L23.4035 17.1867L24.7406 15.8449ZM28.2222 13.4332L25.3125 7.61015C25.2848 7.55513 25.2467 7.50609 25.2001 7.46583C25.1535 7.42557 25.0995 7.39487 25.041 7.3755C24.9826 7.35613 24.9209 7.34847 24.8595 7.35294C24.7981 7.3574 24.7382 7.37393 24.6832 7.40155L22.1918 8.64726L25.5222 15.3082L28.0148 14.0625C28.0698 14.0349 28.1189 13.9967 28.1591 13.9501C28.1994 13.9035 28.2301 13.8495 28.2494 13.791C28.2688 13.7326 28.2765 13.6709 28.272 13.6095C28.2675 13.5481 28.251 13.4882 28.2234 13.4332H28.2222Z" fill="black"/>
</g>
</svg>
