<?xml version="1.0" encoding="utf-8"?>
<!-- Generator: Adobe Illustrator 26.5.0, SVG Export Plug-In . SVG Version: 6.00 Build 0)  -->
<svg version="1.1" id="Calque_1" xmlns="http://www.w3.org/2000/svg" xmlns:xlink="http://www.w3.org/1999/xlink" x="0px" y="0px"
	 viewBox="0 0 39 39" style="enable-background:new 0 0 39 39;" xml:space="preserve">
<style type="text/css">
	.st0{fill:#7D5C67;}
</style>
<g id="Twitter_Footer">
	<path id="Vector" class="st0" d="M34.8,0H4.2C1.9,0,0,1.8,0,4.1v30.2c0,2.3,1.9,4.1,4.2,4.1h30.6c2.3,0,4.2-1.8,4.2-4.1V4.1
		C39,1.8,37.1,0,34.8,0z M30.6,13.6c0,0.2,0,0.5,0,0.7c0,7.5-5.7,16-16.2,16c-3.2,0-6.2-0.9-8.8-2.5C6,27.9,6.5,28,6.9,28
		c2.7,0,5.1-0.9,7.1-2.4c-2.5-0.1-4.6-1.7-5.3-3.9c0.9,0.1,1.7,0.1,2.6-0.1C8.7,21,6.7,18.7,6.7,16v-0.1c0.8,0.4,1.6,0.7,2.6,0.7
		c-0.8-0.5-1.4-1.2-1.9-2C7,13.8,6.7,12.9,6.7,12c0-1,0.3-2,0.8-2.8c2.8,3.4,7,5.7,11.8,5.9c-0.8-3.8,2.1-6.9,5.6-6.9
		c1.6,0,3.1,0.7,4.2,1.8c1.3-0.2,2.5-0.7,3.6-1.4c-0.4,1.3-1.3,2.4-2.5,3.1c1.1-0.1,2.3-0.4,3.3-0.9C32.7,11.9,31.7,12.8,30.6,13.6z
		"/>
</g>
</svg>
