<svg width="39" height="39" viewBox="0 0 39 39" fill="none" xmlns="http://www.w3.org/2000/svg">
<g id="Property 1=Variant2">
<path id="Vector" d="M34.8214 0.5H4.17857C1.87165 0.5 0 2.34766 0 4.625V34.875C0 37.1523 1.87165 39 4.17857 39H34.8214C37.1283 39 39 37.1523 39 34.875V4.625C39 2.34766 37.1283 0.5 34.8214 0.5ZM30.5645 14.1469C30.5819 14.3875 30.5819 14.6367 30.5819 14.8773C30.5819 22.3281 24.8364 30.9133 14.3377 30.9133C11.0993 30.9133 8.09598 29.9852 5.57143 28.3867C6.03281 28.4383 6.47679 28.4555 6.94688 28.4555C9.61942 28.4555 12.0743 27.5617 14.033 26.0492C11.5259 25.9977 9.4192 24.3734 8.69665 22.1391C9.57589 22.268 10.3681 22.268 11.2734 22.0359C8.66183 21.5117 6.70313 19.243 6.70313 16.5016V16.4328C7.46049 16.8539 8.34844 17.1117 9.27991 17.1461C8.4968 16.6319 7.85483 15.9343 7.41128 15.1155C6.96773 14.2968 6.73641 13.3824 6.73795 12.4539C6.73795 11.4055 7.01652 10.443 7.51272 9.60938C10.3246 13.0297 14.5467 15.2641 19.2824 15.5047C18.4728 11.6805 21.3717 8.57812 24.8538 8.57812C26.4991 8.57812 27.979 9.25703 29.0237 10.357C30.3121 10.1164 31.5482 9.64375 32.6451 8.99922C32.2185 10.3055 31.3219 11.4055 30.1379 12.1016C31.2871 11.9812 32.4013 11.6633 33.4286 11.225C32.6538 12.3508 31.6788 13.3477 30.5645 14.1469Z" fill="#1D9BF0"/>
</g>
</svg>
