<svg width="39" height="39" viewBox="0 0 39 39" fill="none" xmlns="http://www.w3.org/2000/svg">
<g id="Property 1=Default">
<path id="Vector" d="M34.8214 0H4.17857C1.87165 0 0 1.84766 0 4.125V34.375C0 36.6523 1.87165 38.5 4.17857 38.5H34.8214C37.1283 38.5 39 36.6523 39 34.375V4.125C39 1.84766 37.1283 0 34.8214 0ZM30.5645 13.6469C30.5819 13.8875 30.5819 14.1367 30.5819 14.3773C30.5819 21.8281 24.8364 30.4133 14.3377 30.4133C11.0993 30.4133 8.09598 29.4852 5.57143 27.8867C6.03281 27.9383 6.47679 27.9555 6.94688 27.9555C9.61942 27.9555 12.0743 27.0617 14.033 25.5492C11.5259 25.4977 9.4192 23.8734 8.69665 21.6391C9.57589 21.768 10.3681 21.768 11.2734 21.5359C8.66183 21.0117 6.70313 18.743 6.70313 16.0016V15.9328C7.46049 16.3539 8.34844 16.6117 9.27991 16.6461C8.4968 16.1319 7.85483 15.4343 7.41128 14.6155C6.96773 13.7968 6.73641 12.8824 6.73795 11.9539C6.73795 10.9055 7.01652 9.94297 7.51272 9.10938C10.3246 12.5297 14.5467 14.7641 19.2824 15.0047C18.4728 11.1805 21.3717 8.07812 24.8538 8.07812C26.4991 8.07812 27.979 8.75703 29.0237 9.85703C30.3121 9.61641 31.5482 9.14375 32.6451 8.49922C32.2185 9.80547 31.3219 10.9055 30.1379 11.6016C31.2871 11.4812 32.4013 11.1633 33.4286 10.725C32.6538 11.8508 31.6788 12.8477 30.5645 13.6469Z" fill="#F6F6F6"/>
</g>
</svg>
