<?xml version="1.0" encoding="utf-8"?>
<!-- Generator: Adobe Illustrator 26.5.0, SVG Export Plug-In . SVG Version: 6.00 Build 0)  -->
<svg version="1.1" id="Calque_1" xmlns="http://www.w3.org/2000/svg" xmlns:xlink="http://www.w3.org/1999/xlink" x="0px" y="0px"
	 viewBox="0 0 47 30" style="enable-background:new 0 0 47 30;" xml:space="preserve">
<style type="text/css">
	.st0{fill:#7D5C67;}
</style>
<g id="Youtube_Footer">
	<path id="Vector" class="st0" d="M46,4.7c-0.5-1.8-2.1-3.3-4.2-3.8C38.2,0,23.5,0,23.5,0S8.8,0,5.1,0.9C3.1,1.4,1.5,2.8,1,4.7
		C0,8,0,15,0,15s0,7,1,10.3c0.5,1.8,2.1,3.2,4.2,3.7C8.8,30,23.5,30,23.5,30s14.7,0,18.4-0.9c2-0.5,3.6-1.9,4.2-3.7
		C47,22,47,15,47,15S47,8,46,4.7z M18.7,21.4V8.7L31,15L18.7,21.4z"/>
</g>
</svg>
