<svg xmlns="http://www.w3.org/2000/svg" xmlns:xlink="http://www.w3.org/1999/xlink" viewBox="0 0 277.34 336.94"><defs><style>.cls-1{fill:url(#Dégradé_sans_nom);}.cls-2{fill:url(#Dégradé_sans_nom-2);}.cls-3{fill:url(#Dégradé_sans_nom-3);}</style><linearGradient id="Dégradé_sans_nom" x1="111.45" y1="990.11" x2="160.67" y2="858.42" gradientTransform="matrix(1, 0, 0, -1, 0, 986.83)" gradientUnits="userSpaceOnUse"><stop offset="0" stop-color="#b9709e"/><stop offset="1" stop-color="#c1425d"/></linearGradient><linearGradient id="Dégradé_sans_nom-2" x1="152.01" y1="877.37" x2="189.25" y2="751" xlink:href="#Dégradé_sans_nom"/><linearGradient id="Dégradé_sans_nom-3" x1="38.18" y1="926.21" x2="87.4" y2="726.68" xlink:href="#Dégradé_sans_nom"/></defs><g id="Calque_2" data-name="Calque 2"><g id="Calque_1-2" data-name="Calque 1"><circle class="cls-1" cx="126.8" cy="37.79" r="37.79"/><path class="cls-2" d="M161.73,68.89a46.75,46.75,0,0,1-32.57,15.64L184.87,214.1h-53.6a37.42,37.42,0,0,1-4.54,10.14h62.46l38.49,89.57c17.73,34.14,49.66,20.39,49.66,20.39Z"/><path class="cls-3" d="M0,37.79s115.87,12.42,117.46,92.9-80.88,182.9-80.88,182.9,87.79-150.19-12-110.68C24.6,202.91,163.61,91.22,0,37.79Z"/></g></g></svg>