<svg xmlns="http://www.w3.org/2000/svg" viewBox="0 0 48 48"><defs><style>.cls-1{fill:#28a745;}</style></defs><g id="Calque_2" data-name="Calque 2"><g id="Calque_1-2" data-name="Calque 1"><path class="cls-1" d="M24,9.06A14.94,14.94,0,1,0,38.94,24,14.94,14.94,0,0,0,24,9.06Zm0,28.39A13.45,13.45,0,1,1,37.45,24,13.45,13.45,0,0,1,24,37.45Z"/><circle class="cls-1" cx="24" cy="35.21" r="0.75"/><circle class="cls-1" cx="24" cy="12.79" r="0.75"/><circle class="cls-1" cx="35.95" cy="24" r="0.75"/><circle class="cls-1" cx="12.05" cy="24" r="0.75"/><path class="cls-1" d="M24,26.24A2.24,2.24,0,1,0,21.76,24,2.24,2.24,0,0,0,24,26.24Zm0-3a.75.75,0,1,1-.75.75A.76.76,0,0,1,24,23.25Z"/><path class="cls-1" d="M30.35,15.14l-10.46,6a.67.67,0,0,0-.34.43L16.56,32a.72.72,0,0,0,.25.79.79.79,0,0,0,.47.17.7.7,0,0,0,.37-.11l10.46-6a.67.67,0,0,0,.34-.43l3-10.46a.72.72,0,0,0-.25-.79.76.76,0,0,0-.84-.06ZM27.11,25.75,18.5,30.66l2.39-8.41,8.61-4.91Z"/><path class="cls-1" d="M24,3A21,21,0,1,1,3,24,21,21,0,0,1,24,3m0-3A24,24,0,1,0,48,24,24,24,0,0,0,24,0Z"/></g></g></svg>