<svg xmlns="http://www.w3.org/2000/svg" viewBox="0 0 48 48"><defs><style>.cls-1,.cls-2{fill:#28a745;}.cls-2{stroke:#28a745;stroke-linecap:round;stroke-linejoin:round;stroke-width:0.5px;}</style></defs><g id="Calque_2" data-name="Calque 2"><g id="Calque_1-2" data-name="Calque 1"><path class="cls-1" d="M24,3A21,21,0,1,1,3,24,21,21,0,0,1,24,3m0-3A24,24,0,1,0,48,24,24,24,0,0,0,24,0Z"/><rect class="cls-2" x="9.22" y="34.83" width="27.85" height="0.87"/><path class="cls-1" d="M15.93,20H12.68v3.67h3.25Zm-.88,2.8h-1.5V20.89h1.5Z"/><path class="cls-1" d="M24.06,20H20.81v3.67h3.25Zm-.87,2.8H21.68V20.89h1.51Z"/><path class="cls-1" d="M20,20H16.75v3.67H20V20Zm-.87,2.8h-1.5V20.89h1.5Z"/><path class="cls-1" d="M15.93,14.76H12.68v3.67h3.25Zm-.88,2.8h-1.5V15.63h1.5Z"/><path class="cls-1" d="M24.06,14.76H20.81v3.67h3.25Zm-.87,2.8H21.68V15.63h1.51Z"/><path class="cls-1" d="M20,14.76H16.75v3.67H20V14.76Zm-.87,2.8h-1.5V15.63h1.5Z"/><path class="cls-1" d="M24.05,31.13V27.46H20.8v3.67Zm-2.37-2.8h1.5v1.93h-1.5Z"/><path class="cls-1" d="M28.12,27.46H24.87v3.67h3.25Zm-.88,2.8h-1.5V28.34h1.5Z"/><path class="cls-2" d="M37.49,26.11a8.51,8.51,0,0,0,1.29-4.66,8.52,8.52,0,0,0-1.29-4.67,4,4,0,0,0-3.31-2,4,4,0,0,0-3.3,2,8.52,8.52,0,0,0-1.29,4.67,8.87,8.87,0,0,0,.83,3.84H25.85V13.17h.76V12.3H10.13v.87h1.08V32.55h-2v.87H37.07v-.87H34.62V28.11A4.18,4.18,0,0,0,37.49,26.11Zm-5.88-8.84a3.19,3.19,0,0,1,2.57-1.64,3.19,3.19,0,0,1,2.58,1.64,7.67,7.67,0,0,1,1.14,4.18,7.7,7.7,0,0,1-1.14,4.18,3.4,3.4,0,0,1-2.14,1.59V23.06l1.53-1.2-.54-.69-1,.78V19.47h-.87v4.22L32,22.49l-.49.72,2.25,1.53v2.49a3.41,3.41,0,0,1-2.14-1.59,7.65,7.65,0,0,1-1.14-4.19A7.61,7.61,0,0,1,31.61,17.27Zm-.68,8.9a5.51,5.51,0,0,0,.71.85v5.52H19.53V26.17Zm-18.85-13H25V25.29H17.46v.88h1.2v6.37H17.3V27.42H13.68v5.13h-1.6ZM32.51,32.55V27.69a3.57,3.57,0,0,0,1.24.42v4.44Z"/></g></g></svg>