<svg xmlns="http://www.w3.org/2000/svg" viewBox="0 0 48 48"><defs><style>.cls-1{fill:#28a745;}</style></defs><g id="Calque_2" data-name="Calque 2"><g id="Calque_1-2" data-name="Calque 1"><path class="cls-1" d="M24,3A21,21,0,1,1,3,24,21,21,0,0,1,24,3m0-3A24,24,0,1,0,48,24,24,24,0,0,0,24,0Z"/><path class="cls-1" d="M24.81,9.1a3.22,3.22,0,1,1-3.07,3.37A3.22,3.22,0,0,1,24.81,9.1Z"/><path class="cls-1" d="M18.46,23.88l-.6-1.59a.27.27,0,0,1,0-.26c1.38-2,3.47-3.74,6-3.49a2.78,2.78,0,0,1,2.44,3.37c-.93,4.2-1.92,8.4-2.85,12.6a.75.75,0,0,0,1,.88,6.31,6.31,0,0,0,2.41-2.32.28.28,0,0,1,.48.07l.6,1.59a.25.25,0,0,1,0,.26c-1.38,2-3.47,3.74-6,3.49a2.78,2.78,0,0,1-2.44-3.37c.93-4.2,1.92-8.4,2.85-12.6a.75.75,0,0,0-1-.88,6.43,6.43,0,0,0-2.41,2.31.28.28,0,0,1-.48-.06Z"/></g></g></svg>