<svg xmlns="http://www.w3.org/2000/svg" viewBox="0 0 48 48"><defs><style>.cls-1{fill:#28a745;}</style></defs><g id="Calque_2" data-name="Calque 2"><g id="Calque_1-2" data-name="Calque 1"><path class="cls-1" d="M17,22.22V32.71a1.26,1.26,0,0,1-.39.92,1.24,1.24,0,0,1-.91.39H11.49a1.25,1.25,0,0,1-.92-.39,1.26,1.26,0,0,1-.39-.92V22.22a1.33,1.33,0,0,1,1.31-1.31h4.22a1.24,1.24,0,0,1,.91.39A1.18,1.18,0,0,1,17,22.22Zm-1,8.86v-7.2a.29.29,0,0,0-.1-.23.29.29,0,0,0-.22-.09H11.49a.3.3,0,0,0-.23.09.29.29,0,0,0-.1.23v7.2a.27.27,0,0,0,.1.22.28.28,0,0,0,.23.1h4.22a.34.34,0,0,0,.32-.32Zm-1.44-8.7a.15.15,0,0,0-.16-.16H12.8a.16.16,0,1,0,0,.32h1.63C14.53,22.54,14.59,22.51,14.59,22.38Zm-.52,10.79a.6.6,0,0,0,.2-.46.66.66,0,0,0-.2-.46.59.59,0,0,0-.46-.19.64.64,0,0,0-.45,1.11.58.58,0,0,0,.45.19A.63.63,0,0,0,14.07,33.17Z"/><path class="cls-1" d="M24,3A21,21,0,1,1,3,24,21,21,0,0,1,24,3m0-3A24,24,0,1,0,48,24,24,24,0,0,0,24,0Z"/><path class="cls-1" d="M39.61,20.61V32.32A1.69,1.69,0,0,1,37.9,34H30a1.69,1.69,0,0,1-1.21-.49,1.67,1.67,0,0,1-.49-1.21V20.61a1.67,1.67,0,0,1,1.7-1.7H37.9a1.69,1.69,0,0,1,1.21.49A1.63,1.63,0,0,1,39.61,20.61Zm-1.38,10.3V20.61a.3.3,0,0,0-.1-.23.35.35,0,0,0-.23-.09H30a.3.3,0,0,0-.23.09.36.36,0,0,0-.1.23V30.94a.28.28,0,0,0,.1.23.32.32,0,0,0,.23.1H37.9a.28.28,0,0,0,.23-.1A.34.34,0,0,0,38.23,30.91Zm-3.79,2.23a.71.71,0,0,0,0-1,.73.73,0,0,0-1,0,.71.71,0,0,0,0,1,.73.73,0,0,0,1,0Z"/><path class="cls-1" d="M34.14,13.09a1.7,1.7,0,0,0-1.27-.52H14.69a1.71,1.71,0,0,0-1.27.52,1.74,1.74,0,0,0-.53,1.28v5.56h1.44V14.37a.34.34,0,0,1,.1-.26.35.35,0,0,1,.26-.1H32.87a.34.34,0,0,1,.36.36V17.9h1.44V14.37A1.74,1.74,0,0,0,34.14,13.09Z"/><path class="cls-1" d="M18,28.56h3.18a2.16,2.16,0,0,1-.2.88c-.13.29-.23.56-.36.79a1.2,1.2,0,0,0-.2.49.71.71,0,0,0,.23.52.78.78,0,0,0,.53.23h5.16a.69.69,0,0,0,.52-.23.78.78,0,0,0,.23-.52,1.14,1.14,0,0,0-.19-.49,7.36,7.36,0,0,1-.36-.82,2.2,2.2,0,0,1-.2-.88h.92V27H18l0,1.57Z"/></g></g></svg>