<svg xmlns="http://www.w3.org/2000/svg" viewBox="0 0 48 48"><defs><style>.cls-1{fill:#28a745;}</style></defs><g id="Calque_2" data-name="Calque 2"><g id="Calque_1-2" data-name="Calque 1"><path class="cls-1" d="M24,3A21,21,0,1,1,3,24,21,21,0,0,1,24,3m0-3A24,24,0,1,0,48,24,24,24,0,0,0,24,0Z"/><path class="cls-1" d="M21.22,26.53a8.46,8.46,0,0,1-3.44.52,8.54,8.54,0,0,1-.84-1.61C16.4,24.22,16,23.22,15,23c-.16,0-1.47-.39-1.86-.48-1.42-.36-2.12-.45-2.83.16-1,.9-1.64,6.59-1.61,9.74a.48.48,0,0,0,.52.48c1.22,0,4,.07,5.08.07a.53.53,0,0,0,.51-.45l.64-4.76a3,3,0,0,0,1.48,1.44,4.34,4.34,0,0,0,1.32.2,12.34,12.34,0,0,0,3.7-.71,1.18,1.18,0,0,0,.74-1.48A1.21,1.21,0,0,0,21.22,26.53Z"/><circle class="cls-1" cx="14.05" cy="18.56" r="3.18"/><path class="cls-1" d="M37.68,22.74c-.67-.61-1.38-.51-2.76-.16L33,23.06c-.9.19-1.39,1.16-2,2.35A11.09,11.09,0,0,1,30.06,27a6.69,6.69,0,0,1-2.57-1.93,1.18,1.18,0,1,0-1.77,1.57c.61.68,2.57,2.7,4.41,2.7a2.8,2.8,0,0,0,.7-.09,3.43,3.43,0,0,0,1.67-1.64l.68,5a.52.52,0,0,0,.51.45c1.1,0,3.86-.06,5.08-.06a.51.51,0,0,0,.52-.48C39.29,29.3,38.68,23.61,37.68,22.74Z"/><circle class="cls-1" cx="33.92" cy="18.56" r="3.18"/><path class="cls-1" d="M28.78,17.18V14.35a2.43,2.43,0,0,0-2.42-2.41H21.61a2.43,2.43,0,0,0-2.42,2.41v2.83a2.43,2.43,0,0,0,2.42,2.41h.45a4.56,4.56,0,0,1-.26,1.12.85.85,0,0,0,.26,1,.88.88,0,0,0,.54.22.75.75,0,0,0,.42-.12,8.29,8.29,0,0,0,2.38-2.19h1A2.37,2.37,0,0,0,28.78,17.18Zm-3.64,1.44a.44.44,0,0,0-.38.2,8.76,8.76,0,0,1-1.93,1.93,6.12,6.12,0,0,0,.22-1.68.49.49,0,0,0-.48-.48h-.93a1.44,1.44,0,0,1-1.45-1.44V14.32a1.44,1.44,0,0,1,1.45-1.45H26.4a1.44,1.44,0,0,1,1.44,1.45v2.83a1.43,1.43,0,0,1-1.44,1.44H25.14Z"/><path class="cls-1" d="M22.06,15.28h3.85a.48.48,0,1,0,0-1H22.06a.48.48,0,1,0,0,1Z"/><path class="cls-1" d="M25.91,16.21H22.06a.49.49,0,1,0,0,1h3.85a.49.49,0,1,0,0-1Z"/></g></g></svg>