<svg xmlns="http://www.w3.org/2000/svg" viewBox="0 0 48 48"><defs><style>.cls-1{fill:#28a745;}</style></defs><g id="Calque_2" data-name="Calque 2"><g id="Calque_1-2" data-name="Calque 1"><path class="cls-1" d="M24,3A21,21,0,1,1,3,24,21,21,0,0,1,24,3m0-3A24,24,0,1,0,48,24,24,24,0,0,0,24,0Z"/><rect class="cls-1" x="30.51" y="30.34" width="9.27" height="0.33"/><rect class="cls-1" x="37.57" y="24.86" width="2.21" height="0.23"/><path class="cls-1" d="M25.69,23.47a2.08,2.08,0,0,1,1.08.29l-1.2,1.75a4.53,4.53,0,0,1,1.17.27h1.1a2.38,2.38,0,0,1-.11.53c.13.09.25.19.37.29a2.52,2.52,0,0,0,.19-.82h.9a.67.67,0,0,1-.15-.32h-.75a2.6,2.6,0,0,0-1-1.89l.67-1,.22-.07L29.07,25l.16-.5-.74-2.07.67-.21L28.75,22l-.37.11-.07-.19h0a2.24,2.24,0,0,1-.34-.11l.15.41-.26.08a.15.15,0,0,0-.09.06l-.69,1A2.54,2.54,0,0,0,25.69,23a2.59,2.59,0,0,0-1.83.76l.16.49A2.15,2.15,0,0,1,25.69,23.47Zm2.15,2H26l1-1.52A2.18,2.18,0,0,1,27.84,25.46Z"/><path class="cls-1" d="M25.18,27.71l.17.48a2,2,0,0,0,.34,0A2.52,2.52,0,0,0,27,27.86a2.27,2.27,0,0,0-.4-.29,2.09,2.09,0,0,1-.91.2A2.22,2.22,0,0,1,25.18,27.71Z"/><path class="cls-1" d="M32.63,20l.24.7-2,.62.29.15.11.07L33,21l.16.45-1.94,2.06-.23.72,2.28-2.43.47,1.37a2.6,2.6,0,1,0,1-.19,2.54,2.54,0,0,0-.68.09l-1-3L32.63,20A.11.11,0,0,0,32.63,20Zm2.06,3.44a2.15,2.15,0,1,1-.84.17l.68,2a.17.17,0,0,0,.16.11h.05a.16.16,0,0,0,.1-.2h0l-.68-2A2.26,2.26,0,0,1,34.69,23.47Z"/><path class="cls-1" d="M33.84,19.84l0,.05a.38.38,0,0,0,0-.76.37.37,0,0,0-.18.05A.55.55,0,0,1,33.84,19.84Z"/><circle class="cls-1" cx="30.92" cy="15.94" r="1.21"/><path class="cls-1" d="M33.18,20.05a.39.39,0,0,0,.15,0,.43.43,0,0,0,.41-.27.44.44,0,0,0-.25-.56l-3.88-1.51a.42.42,0,0,0-.56.25.42.42,0,0,0,.24.55Z"/><path class="cls-1" d="M28,21.75l.26.08a1.23,1.23,0,0,0,.44.05l1.27.65-.83,2.55a.67.67,0,0,0,.43.85.78.78,0,0,0,.21,0,.68.68,0,0,0,.64-.47l1-3.09a.68.68,0,0,0-.33-.81l-1.86-1A10,10,0,0,1,30,18.92l-.73-.29a.53.53,0,0,1-.3-.69.54.54,0,0,1,.5-.35.41.41,0,0,1,.19,0l.67.26a.77.77,0,0,0-.34-.66,1.23,1.23,0,0,0-1.59.54,5.84,5.84,0,0,0-1.07,2.81,1.52,1.52,0,0,0,.06.55h-.19a.16.16,0,0,0-.16.16v.3a.16.16,0,0,0,.16.16H28Z"/><path class="cls-1" d="M15.38,30.2h1.38a1.13,1.13,0,0,1-.24-.49H15.38a3.93,3.93,0,0,0-1.52-2.88l1-1.48.34-.11L16.57,29l.25-.76L15.68,25.1l1-.32-.63-.33-.57.18-.1-.29-.08,0a3.33,3.33,0,0,1-.51-.16l.22.62-.4.12a.26.26,0,0,0-.13.1l-1.06,1.54a4,4,0,0,0-2-.56,4,4,0,1,0,4,4.22Zm-1.91-2.81a3.29,3.29,0,0,1,1.22,2.32H11.88ZM8.13,30a3.29,3.29,0,0,1,4.93-2.85l-1.85,2.71a.25.25,0,0,0,0,.25.26.26,0,0,0,.22.13h3.28A3.28,3.28,0,0,1,8.13,30Z"/><path class="cls-1" d="M23.66,26.28a4,4,0,1,0,1.5-.3,3.88,3.88,0,0,0-1,.14l-1.56-4.61L22,21.29a.25.25,0,0,0,0,.12l.36,1.08-3,1,.44.22.16.11,2.6-.81.23.69-3,3.14-.36,1.1L23,24.18Zm1.5.39a3.29,3.29,0,1,1-1.28.26l1,3.1a.25.25,0,0,0,.24.17h.08a.23.23,0,0,0,.15-.31h0l-1-3.11A3.59,3.59,0,0,1,25.16,26.67Z"/><path class="cls-1" d="M23.86,21.12a.2.2,0,0,1,0,.08A.58.58,0,0,0,23.77,20a.6.6,0,0,0-.27.07A.82.82,0,0,1,23.86,21.12Z"/><circle class="cls-1" cx="19.4" cy="15.17" r="1.85"/><path class="cls-1" d="M22.85,21.44a.67.67,0,0,0,.24,0,.66.66,0,0,0,.61-.42.65.65,0,0,0-.37-.85L17.39,17.9a.66.66,0,0,0-.48,1.23Z"/><path class="cls-1" d="M15,24a3,3,0,0,0,.4.12,2,2,0,0,0,.67.09l1.94,1-1.27,3.9a1,1,0,0,0,.66,1.3,1.19,1.19,0,0,0,.32,0,1,1,0,0,0,1-.72l1.54-4.72a1,1,0,0,0-.51-1.24l-2.84-1.46A15.5,15.5,0,0,1,18,19.71l-1.11-.43a.82.82,0,0,1-.47-1.06.83.83,0,0,1,.77-.53.77.77,0,0,1,.3.06l1,.39a1.11,1.11,0,0,0-.53-1,1.89,1.89,0,0,0-2.43.82,9.16,9.16,0,0,0-1.63,4.3,2.29,2.29,0,0,0,.09.83h-.28a.25.25,0,0,0-.25.25v.45a.25.25,0,0,0,.25.25H15Z"/></g></g></svg>